<?xml version="1.0" encoding="UTF-8"?>
<svg width="480" height="200" viewBox="0 0 480 200" fill="none" xmlns="http://www.w3.org/2000/svg">
  
  <g>
    <circle cx="323.76" cy="109.60" r="1.83" fill="#ffffff" opacity="0.662"/>
    <circle cx="146.23" cy="69.87" r="1.31" fill="#ffffff" opacity="0.675"/>
    <circle cx="251.37" cy="65.06" r="1.33" fill="#ffffff" opacity="0.938"/>
    <circle cx="305.13" cy="117.88" r="2.00" fill="#ffffff" opacity="0.926"/>
    <circle cx="318.17" cy="82.07" r="1.82" fill="#ffffff" opacity="0.625"/>
    <circle cx="183.96" cy="78.28" r="1.28" fill="#ffffff" opacity="0.576"/>
    <circle cx="197.70" cy="78.21" r="1.12" fill="#ffffff" opacity="0.903"/>
    <circle cx="332.89" cy="70.81" r="1.95" fill="#ffffff" opacity="0.998"/>
    <circle cx="181.14" cy="119.55" r="0.99" fill="#ffffff" opacity="0.684"/>
    <circle cx="249.17" cy="69.20" r="1.45" fill="#ffffff" opacity="0.887"/>
    <circle cx="158.89" cy="114.21" r="1.40" fill="#ffffff" opacity="0.934"/>
    <circle cx="297.14" cy="120.15" r="0.90" fill="#ffffff" opacity="0.634"/>
    <circle cx="246.24" cy="130.44" r="1.08" fill="#ffffff" opacity="0.604"/>
    <circle cx="323.98" cy="101.37" r="1.51" fill="#ffffff" opacity="0.829"/>
    <circle cx="246.80" cy="68.21" r="1.43" fill="#ffffff" opacity="0.971"/>
    <circle cx="225.26" cy="106.54" r="1.09" fill="#ffffff" opacity="0.728"/>
    <circle cx="317.43" cy="92.50" r="1.18" fill="#ffffff" opacity="0.888"/>
    <circle cx="130.93" cy="64.90" r="2.00" fill="#ffffff" opacity="0.998"/>
    <circle cx="331.93" cy="63.28" r="1.12" fill="#ffffff" opacity="0.970"/>
    <circle cx="342.95" cy="68.95" r="1.24" fill="#ffffff" opacity="0.621"/>
    <circle cx="337.83" cy="76.51" r="1.53" fill="#ffffff" opacity="0.994"/>
    <circle cx="152.38" cy="76.77" r="1.78" fill="#ffffff" opacity="0.685"/>
    <circle cx="149.41" cy="101.10" r="0.96" fill="#ffffff" opacity="0.602"/>
    <circle cx="231.02" cy="107.13" r="1.13" fill="#ffffff" opacity="0.822"/>
    <circle cx="265.54" cy="63.26" r="1.56" fill="#ffffff" opacity="0.669"/>
    <circle cx="156.97" cy="105.01" r="1.82" fill="#ffffff" opacity="0.592"/>
    <circle cx="288.81" cy="74.44" r="0.80" fill="#ffffff" opacity="0.897"/>
    <circle cx="229.34" cy="116.40" r="1.69" fill="#ffffff" opacity="0.798"/>
    <circle cx="314.82" cy="109.77" r="0.89" fill="#ffffff" opacity="0.947"/>
    <circle cx="176.01" cy="116.11" r="1.80" fill="#ffffff" opacity="0.812"/>
    <circle cx="319.12" cy="101.07" r="1.17" fill="#ffffff" opacity="0.955"/>
    <circle cx="263.74" cy="93.90" r="1.88" fill="#ffffff" opacity="0.645"/>
    <circle cx="146.37" cy="76.01" r="1.74" fill="#ffffff" opacity="0.948"/>
    <circle cx="310.77" cy="95.30" r="0.99" fill="#ffffff" opacity="0.968"/>
    <circle cx="216.91" cy="107.19" r="1.77" fill="#ffffff" opacity="0.947"/>
    <circle cx="141.81" cy="82.59" r="1.20" fill="#ffffff" opacity="0.969"/>
    <circle cx="322.76" cy="124.91" r="1.77" fill="#ffffff" opacity="0.670"/>
    <circle cx="334.72" cy="127.02" r="1.85" fill="#ffffff" opacity="0.936"/>
    <circle cx="229.31" cy="63.79" r="1.35" fill="#ffffff" opacity="0.687"/>
    <circle cx="178.74" cy="120.32" r="0.83" fill="#ffffff" opacity="0.637"/>
    <circle cx="256.57" cy="124.91" r="1.96" fill="#ffffff" opacity="0.676"/>
    <circle cx="191.35" cy="72.75" r="1.98" fill="#ffffff" opacity="0.791"/>
    <circle cx="150.10" cy="115.04" r="1.96" fill="#ffffff" opacity="0.630"/>
    <circle cx="324.16" cy="92.41" r="0.93" fill="#ffffff" opacity="0.746"/>
    <circle cx="217.57" cy="86.53" r="1.53" fill="#ffffff" opacity="0.780"/>
    <circle cx="140.71" cy="82.19" r="1.11" fill="#ffffff" opacity="0.869"/>
    <circle cx="333.75" cy="73.06" r="1.45" fill="#ffffff" opacity="0.874"/>
    <circle cx="296.60" cy="76.43" r="1.24" fill="#ffffff" opacity="0.581"/>
    <circle cx="166.41" cy="134.58" r="1.18" fill="#ffffff" opacity="0.932"/>
    <circle cx="299.55" cy="120.50" r="1.17" fill="#ffffff" opacity="0.734"/>
    <circle cx="147.76" cy="86.49" r="0.95" fill="#ffffff" opacity="0.739"/>
    <circle cx="247.10" cy="69.44" r="1.88" fill="#ffffff" opacity="0.827"/>
    <circle cx="333.50" cy="68.12" r="0.80" fill="#ffffff" opacity="0.679"/>
    <circle cx="326.82" cy="90.20" r="1.59" fill="#ffffff" opacity="0.759"/>
    <circle cx="188.86" cy="68.28" r="1.37" fill="#ffffff" opacity="0.956"/>
    <circle cx="145.74" cy="88.17" r="0.90" fill="#ffffff" opacity="0.782"/>
    <circle cx="236.33" cy="126.59" r="1.78" fill="#ffffff" opacity="0.888"/>
    <circle cx="307.43" cy="86.31" r="1.04" fill="#ffffff" opacity="0.561"/>
    <circle cx="306.36" cy="106.94" r="1.82" fill="#ffffff" opacity="0.583"/>
    <circle cx="326.79" cy="80.32" r="1.03" fill="#ffffff" opacity="0.863"/>
    <circle cx="283.99" cy="123.36" r="1.59" fill="#ffffff" opacity="0.552"/>
    <circle cx="287.63" cy="65.68" r="0.93" fill="#ffffff" opacity="0.741"/>
    <circle cx="300.19" cy="119.14" r="1.42" fill="#ffffff" opacity="0.573"/>
    <circle cx="246.37" cy="96.87" r="1.35" fill="#ffffff" opacity="0.911"/>
    <circle cx="189.42" cy="103.22" r="1.51" fill="#ffffff" opacity="0.978"/>
    <circle cx="339.98" cy="70.28" r="1.66" fill="#ffffff" opacity="0.777"/>
    <circle cx="260.83" cy="132.12" r="1.88" fill="#ffffff" opacity="0.885"/>
    <circle cx="314.94" cy="89.40" r="1.10" fill="#ffffff" opacity="0.837"/>
    <circle cx="134.66" cy="68.05" r="1.55" fill="#ffffff" opacity="0.674"/>
    <circle cx="228.94" cy="102.46" r="1.13" fill="#ffffff" opacity="0.694"/>
    <circle cx="194.10" cy="82.10" r="1.08" fill="#ffffff" opacity="0.862"/>
    <circle cx="176.52" cy="124.91" r="1.29" fill="#ffffff" opacity="0.794"/>
    <circle cx="327.79" cy="108.27" r="1.30" fill="#ffffff" opacity="0.957"/>
    <circle cx="154.21" cy="109.49" r="1.83" fill="#ffffff" opacity="0.895"/>
    <circle cx="156.70" cy="128.76" r="1.22" fill="#ffffff" opacity="0.889"/>
    <circle cx="235.88" cy="129.13" r="1.30" fill="#ffffff" opacity="0.886"/>
    <circle cx="187.12" cy="89.26" r="1.06" fill="#ffffff" opacity="0.649"/>
    <circle cx="179.84" cy="103.82" r="1.20" fill="#ffffff" opacity="0.856"/>
    <circle cx="216.76" cy="74.16" r="1.36" fill="#ffffff" opacity="0.607"/>
    <circle cx="230.31" cy="114.82" r="1.27" fill="#ffffff" opacity="0.804"/>
    <circle cx="230.82" cy="67.36" r="0.96" fill="#ffffff" opacity="0.758"/>
    <circle cx="334.88" cy="64.70" r="1.05" fill="#ffffff" opacity="0.697"/>
    <circle cx="314.65" cy="111.70" r="1.70" fill="#ffffff" opacity="0.924"/>
    <circle cx="302.38" cy="75.95" r="0.82" fill="#ffffff" opacity="0.793"/>
    <circle cx="236.25" cy="121.62" r="1.58" fill="#ffffff" opacity="0.902"/>
    <circle cx="139.38" cy="83.64" r="1.94" fill="#ffffff" opacity="0.640"/>
    <circle cx="140.80" cy="67.13" r="0.95" fill="#ffffff" opacity="0.851"/>
    <circle cx="338.16" cy="126.29" r="1.64" fill="#ffffff" opacity="0.895"/>
    <circle cx="180.17" cy="78.27" r="1.70" fill="#ffffff" opacity="0.602"/>
    <circle cx="288.80" cy="129.16" r="0.93" fill="#ffffff" opacity="0.562"/>
    <circle cx="235.53" cy="69.44" r="1.95" fill="#ffffff" opacity="0.728"/>
    <circle cx="328.54" cy="88.94" r="1.63" fill="#ffffff" opacity="0.832"/>
    <circle cx="141.00" cy="82.68" r="1.82" fill="#ffffff" opacity="0.820"/>
    <circle cx="176.05" cy="97.21" r="1.74" fill="#ffffff" opacity="0.706"/>
    <circle cx="292.82" cy="109.68" r="1.41" fill="#ffffff" opacity="0.704"/>
    <circle cx="248.87" cy="126.81" r="0.93" fill="#ffffff" opacity="0.982"/>
    <circle cx="232.34" cy="89.82" r="1.65" fill="#ffffff" opacity="0.746"/>
    <circle cx="229.58" cy="74.16" r="1.12" fill="#ffffff" opacity="0.914"/>
    <circle cx="147.10" cy="89.96" r="1.32" fill="#ffffff" opacity="0.879"/>
    <circle cx="306.42" cy="88.88" r="1.80" fill="#ffffff" opacity="0.589"/>
    <circle cx="229.95" cy="75.36" r="1.36" fill="#ffffff" opacity="0.825"/>
    <circle cx="231.70" cy="111.82" r="1.82" fill="#ffffff" opacity="0.632"/>
    <circle cx="147.28" cy="81.74" r="1.21" fill="#ffffff" opacity="0.946"/>
    <circle cx="179.50" cy="115.44" r="0.81" fill="#ffffff" opacity="0.977"/>
    <circle cx="260.96" cy="133.55" r="1.39" fill="#ffffff" opacity="0.891"/>
    <circle cx="303.48" cy="114.36" r="1.39" fill="#ffffff" opacity="0.907"/>
    <circle cx="297.98" cy="110.30" r="1.63" fill="#ffffff" opacity="0.688"/>
    <circle cx="247.20" cy="66.93" r="1.44" fill="#ffffff" opacity="0.741"/>
    <circle cx="174.61" cy="107.58" r="1.64" fill="#ffffff" opacity="0.672"/>
    <circle cx="227.38" cy="109.05" r="1.03" fill="#ffffff" opacity="0.604"/>
    <circle cx="333.09" cy="73.66" r="1.02" fill="#ffffff" opacity="0.647"/>
    <circle cx="161.96" cy="102.56" r="1.97" fill="#ffffff" opacity="0.786"/>
    <circle cx="296.46" cy="117.00" r="1.03" fill="#ffffff" opacity="0.652"/>
    <circle cx="182.20" cy="77.79" r="1.44" fill="#ffffff" opacity="0.673"/>
    <circle cx="236.19" cy="73.13" r="1.64" fill="#ffffff" opacity="0.607"/>
    <circle cx="306.92" cy="95.98" r="1.85" fill="#ffffff" opacity="0.808"/>
    <circle cx="322.92" cy="89.85" r="1.02" fill="#ffffff" opacity="0.573"/>
    <circle cx="198.10" cy="80.94" r="1.79" fill="#ffffff" opacity="0.730"/>
    <circle cx="294.94" cy="132.32" r="0.86" fill="#ffffff" opacity="0.617"/>
    <circle cx="328.16" cy="109.51" r="1.99" fill="#ffffff" opacity="0.603"/>
    <circle cx="160.66" cy="115.27" r="1.75" fill="#ffffff" opacity="0.652"/>
    <circle cx="304.06" cy="102.88" r="1.33" fill="#ffffff" opacity="0.937"/>
    <circle cx="142.23" cy="76.51" r="1.55" fill="#ffffff" opacity="0.824"/>
    <circle cx="317.60" cy="115.12" r="1.05" fill="#ffffff" opacity="0.645"/>
    <circle cx="141.40" cy="85.14" r="1.01" fill="#ffffff" opacity="0.584"/>
    <circle cx="163.76" cy="126.88" r="1.51" fill="#ffffff" opacity="0.681"/>
    <circle cx="165.33" cy="122.52" r="1.64" fill="#ffffff" opacity="0.754"/>
    <circle cx="259.47" cy="123.06" r="1.75" fill="#ffffff" opacity="0.831"/>
    <circle cx="250.40" cy="67.08" r="1.31" fill="#ffffff" opacity="0.795"/>
    <circle cx="326.37" cy="78.02" r="1.79" fill="#ffffff" opacity="0.582"/>
    <circle cx="283.16" cy="124.52" r="1.70" fill="#ffffff" opacity="0.806"/>
    <circle cx="133.47" cy="64.06" r="1.63" fill="#ffffff" opacity="0.865"/>
    <circle cx="251.11" cy="124.00" r="1.39" fill="#ffffff" opacity="0.586"/>
    <circle cx="186.85" cy="84.83" r="1.19" fill="#ffffff" opacity="0.663"/>
    <circle cx="228.98" cy="93.15" r="1.80" fill="#ffffff" opacity="0.809"/>
    <circle cx="155.13" cy="82.25" r="1.61" fill="#ffffff" opacity="0.671"/>
    <circle cx="192.85" cy="67.64" r="1.36" fill="#ffffff" opacity="0.843"/>
    <circle cx="242.04" cy="75.20" r="1.50" fill="#ffffff" opacity="0.836"/>
    <circle cx="340.98" cy="129.98" r="1.22" fill="#ffffff" opacity="0.700"/>
    <circle cx="164.43" cy="134.89" r="1.20" fill="#ffffff" opacity="0.862"/>
    <circle cx="238.47" cy="105.11" r="1.78" fill="#ffffff" opacity="0.798"/>
    <circle cx="235.89" cy="128.54" r="1.19" fill="#ffffff" opacity="0.987"/>
    <circle cx="298.76" cy="117.04" r="1.99" fill="#ffffff" opacity="0.846"/>
    <circle cx="181.11" cy="84.78" r="1.03" fill="#ffffff" opacity="0.713"/>
    <circle cx="254.64" cy="76.31" r="1.71" fill="#ffffff" opacity="0.642"/>
    <circle cx="180.12" cy="113.07" r="1.33" fill="#ffffff" opacity="0.864"/>
    <circle cx="242.05" cy="100.18" r="1.53" fill="#ffffff" opacity="0.658"/>
    <circle cx="147.15" cy="92.13" r="1.46" fill="#ffffff" opacity="0.592"/>
    <circle cx="343.23" cy="130.03" r="1.35" fill="#ffffff" opacity="0.603"/>
    <circle cx="161.83" cy="132.00" r="1.66" fill="#ffffff" opacity="0.779"/>
    <circle cx="170.43" cy="111.84" r="1.98" fill="#ffffff" opacity="0.660"/>
    <circle cx="242.13" cy="95.71" r="1.91" fill="#ffffff" opacity="0.779"/>
    <circle cx="151.95" cy="72.91" r="1.13" fill="#ffffff" opacity="0.906"/>
    <circle cx="329.79" cy="81.09" r="1.41" fill="#ffffff" opacity="0.919"/>
    <circle cx="197.46" cy="78.50" r="1.50" fill="#ffffff" opacity="1.000"/>
    <circle cx="156.97" cy="119.12" r="1.45" fill="#ffffff" opacity="0.705"/>
    <circle cx="158.13" cy="104.11" r="1.35" fill="#ffffff" opacity="0.695"/>
    <circle cx="235.22" cy="102.49" r="1.49" fill="#ffffff" opacity="0.655"/>
    <circle cx="304.69" cy="78.86" r="1.69" fill="#ffffff" opacity="0.867"/>
    <circle cx="174.78" cy="119.72" r="1.60" fill="#ffffff" opacity="0.919"/>
    <circle cx="328.20" cy="104.99" r="0.84" fill="#ffffff" opacity="0.776"/>
    <circle cx="221.23" cy="94.92" r="1.85" fill="#ffffff" opacity="0.748"/>
    <circle cx="332.06" cy="129.89" r="1.67" fill="#ffffff" opacity="0.734"/>
    <circle cx="319.39" cy="104.14" r="1.36" fill="#ffffff" opacity="0.986"/>
    <circle cx="214.60" cy="92.48" r="1.58" fill="#ffffff" opacity="0.933"/>
    <circle cx="190.88" cy="89.90" r="1.26" fill="#ffffff" opacity="0.692"/>
    <circle cx="138.55" cy="77.65" r="1.85" fill="#ffffff" opacity="0.566"/>
    <circle cx="321.92" cy="71.33" r="1.91" fill="#ffffff" opacity="0.999"/>
    <circle cx="219.62" cy="99.83" r="0.92" fill="#ffffff" opacity="0.835"/>
    <circle cx="160.93" cy="98.86" r="1.63" fill="#ffffff" opacity="0.957"/>
    <circle cx="292.86" cy="68.74" r="1.15" fill="#ffffff" opacity="0.719"/>
    <circle cx="152.11" cy="121.08" r="1.48" fill="#ffffff" opacity="0.907"/>
    <circle cx="130.17" cy="64.95" r="1.85" fill="#ffffff" opacity="0.829"/>
    <circle cx="229.35" cy="129.03" r="0.97" fill="#ffffff" opacity="0.758"/>
    <circle cx="132.38" cy="69.39" r="0.81" fill="#ffffff" opacity="0.912"/>
    <circle cx="296.00" cy="72.44" r="0.99" fill="#ffffff" opacity="0.749"/>
    <circle cx="318.61" cy="109.22" r="1.57" fill="#ffffff" opacity="0.741"/>
    <circle cx="193.38" cy="73.86" r="1.04" fill="#ffffff" opacity="0.723"/>
    <circle cx="283.96" cy="122.34" r="1.49" fill="#ffffff" opacity="0.809"/>
    <circle cx="222.23" cy="113.49" r="1.97" fill="#ffffff" opacity="0.846"/>
    <circle cx="318.44" cy="93.16" r="1.62" fill="#ffffff" opacity="0.885"/>
    <circle cx="151.87" cy="107.27" r="1.40" fill="#ffffff" opacity="0.957"/>
    <circle cx="136.47" cy="67.75" r="1.53" fill="#ffffff" opacity="0.709"/>
    <circle cx="216.34" cy="91.30" r="1.61" fill="#ffffff" opacity="0.874"/>
    <circle cx="152.40" cy="91.85" r="1.55" fill="#ffffff" opacity="0.957"/>
    <circle cx="149.37" cy="106.52" r="1.33" fill="#ffffff" opacity="0.811"/>
    <circle cx="185.58" cy="95.98" r="1.15" fill="#ffffff" opacity="0.886"/>
    <circle cx="302.19" cy="100.08" r="1.45" fill="#ffffff" opacity="0.987"/>
    <circle cx="306.08" cy="80.03" r="1.80" fill="#ffffff" opacity="0.666"/>
    <circle cx="240.81" cy="102.95" r="1.77" fill="#ffffff" opacity="0.886"/>
    <circle cx="226.60" cy="127.04" r="1.96" fill="#ffffff" opacity="0.613"/>
    <circle cx="161.17" cy="134.90" r="1.67" fill="#ffffff" opacity="0.991"/>
    <circle cx="283.17" cy="63.76" r="1.24" fill="#ffffff" opacity="0.906"/>
    <circle cx="217.78" cy="114.09" r="1.35" fill="#ffffff" opacity="0.853"/>
    <circle cx="331.43" cy="117.21" r="1.79" fill="#ffffff" opacity="0.973"/>
    <circle cx="217.02" cy="69.33" r="0.83" fill="#ffffff" opacity="0.948"/>
    <circle cx="231.15" cy="115.04" r="1.07" fill="#ffffff" opacity="0.578"/>
    <circle cx="343.81" cy="130.02" r="1.16" fill="#ffffff" opacity="0.734"/>
    <circle cx="218.10" cy="103.12" r="1.17" fill="#ffffff" opacity="0.772"/>
    <circle cx="286.99" cy="120.97" r="0.96" fill="#ffffff" opacity="0.754"/>
    <circle cx="146.43" cy="81.61" r="1.94" fill="#ffffff" opacity="0.739"/>
    <circle cx="168.61" cy="121.14" r="1.30" fill="#ffffff" opacity="0.595"/>
    <circle cx="150.97" cy="110.77" r="1.94" fill="#ffffff" opacity="0.565"/>
    <circle cx="215.68" cy="86.86" r="1.94" fill="#ffffff" opacity="0.935"/>
    <circle cx="147.00" cy="70.46" r="1.45" fill="#ffffff" opacity="0.990"/>
    <circle cx="196.65" cy="82.75" r="1.03" fill="#ffffff" opacity="0.605"/>
    <circle cx="307.87" cy="93.89" r="1.60" fill="#ffffff" opacity="0.839"/>
    <circle cx="148.24" cy="71.80" r="1.74" fill="#ffffff" opacity="0.660"/>
    <circle cx="178.06" cy="96.16" r="0.88" fill="#ffffff" opacity="0.894"/>
    <circle cx="193.27" cy="62.29" r="1.84" fill="#ffffff" opacity="0.698"/>
    <circle cx="329.12" cy="135.00" r="0.80" fill="#ffffff" opacity="0.936"/>
    <circle cx="154.11" cy="117.07" r="1.10" fill="#ffffff" opacity="0.629"/>
    <circle cx="231.40" cy="127.81" r="0.82" fill="#ffffff" opacity="0.905"/>
    <circle cx="321.34" cy="116.56" r="1.01" fill="#ffffff" opacity="0.574"/>
    <circle cx="318.60" cy="80.07" r="1.69" fill="#ffffff" opacity="0.764"/>
    <circle cx="254.70" cy="99.03" r="0.93" fill="#ffffff" opacity="0.777"/>
    <circle cx="287.11" cy="119.86" r="1.74" fill="#ffffff" opacity="0.940"/>
    <circle cx="231.05" cy="73.90" r="1.96" fill="#ffffff" opacity="0.577"/>
    <circle cx="179.95" cy="99.75" r="1.62" fill="#ffffff" opacity="0.771"/>
    <circle cx="338.02" cy="129.93" r="0.90" fill="#ffffff" opacity="0.824"/>
    <circle cx="293.91" cy="68.44" r="1.56" fill="#ffffff" opacity="0.797"/>
    <circle cx="153.56" cy="130.24" r="1.44" fill="#ffffff" opacity="0.754"/>
    <circle cx="301.26" cy="108.00" r="1.64" fill="#ffffff" opacity="0.934"/>
    <circle cx="316.38" cy="83.67" r="1.67" fill="#ffffff" opacity="0.647"/>
    <circle cx="154.88" cy="126.32" r="1.21" fill="#ffffff" opacity="0.754"/>
    <circle cx="319.79" cy="108.99" r="1.31" fill="#ffffff" opacity="0.849"/>
    <circle cx="171.69" cy="107.13" r="1.91" fill="#ffffff" opacity="0.580"/>
    <circle cx="290.83" cy="73.98" r="0.92" fill="#ffffff" opacity="0.882"/>
    <circle cx="216.78" cy="90.14" r="1.50" fill="#ffffff" opacity="0.803"/>
    <circle cx="290.57" cy="120.06" r="1.22" fill="#ffffff" opacity="0.849"/>
    <circle cx="220.63" cy="73.92" r="1.67" fill="#ffffff" opacity="0.986"/>
    <circle cx="239.25" cy="101.63" r="1.49" fill="#ffffff" opacity="0.646"/>
    <circle cx="328.39" cy="133.31" r="0.93" fill="#ffffff" opacity="0.930"/>
    <circle cx="298.67" cy="122.66" r="1.49" fill="#ffffff" opacity="0.913"/>
    <circle cx="261.86" cy="133.19" r="1.78" fill="#ffffff" opacity="0.826"/>
    <circle cx="313.36" cy="99.82" r="1.91" fill="#ffffff" opacity="0.923"/>
    <circle cx="228.42" cy="131.20" r="1.64" fill="#ffffff" opacity="0.689"/>
    <circle cx="133.60" cy="61.77" r="1.84" fill="#ffffff" opacity="0.805"/>
    <circle cx="180.75" cy="106.10" r="1.56" fill="#ffffff" opacity="0.564"/>
    <circle cx="140.62" cy="85.29" r="1.30" fill="#ffffff" opacity="0.703"/>
    <circle cx="300.68" cy="98.55" r="1.73" fill="#ffffff" opacity="0.805"/>
    <circle cx="195.96" cy="62.88" r="0.99" fill="#ffffff" opacity="0.828"/>
    <circle cx="184.43" cy="69.43" r="1.59" fill="#ffffff" opacity="0.769"/>
    <circle cx="164.86" cy="132.43" r="1.71" fill="#ffffff" opacity="0.601"/>
    <circle cx="216.82" cy="88.46" r="1.61" fill="#ffffff" opacity="0.769"/>
    <circle cx="255.42" cy="127.86" r="1.27" fill="#ffffff" opacity="0.820"/>
    <circle cx="226.77" cy="125.50" r="1.05" fill="#ffffff" opacity="0.612"/>
    <circle cx="264.39" cy="123.57" r="0.81" fill="#ffffff" opacity="0.886"/>
    <circle cx="291.19" cy="83.70" r="1.64" fill="#ffffff" opacity="0.775"/>
    <circle cx="303.83" cy="78.77" r="0.89" fill="#ffffff" opacity="0.938"/>
    <circle cx="277.86" cy="64.80" r="1.91" fill="#ffffff" opacity="0.938"/>
    <circle cx="326.19" cy="78.18" r="1.65" fill="#ffffff" opacity="0.738"/>
    <circle cx="248.04" cy="127.80" r="1.19" fill="#ffffff" opacity="0.911"/>
    <circle cx="240.30" cy="104.83" r="1.90" fill="#ffffff" opacity="0.590"/>
    <circle cx="233.86" cy="133.36" r="1.51" fill="#ffffff" opacity="0.786"/>
    <circle cx="235.74" cy="67.53" r="1.21" fill="#ffffff" opacity="0.700"/>
    <circle cx="329.17" cy="118.03" r="0.94" fill="#ffffff" opacity="0.779"/>
    <circle cx="244.01" cy="97.62" r="1.67" fill="#ffffff" opacity="0.919"/>
    <circle cx="220.79" cy="124.34" r="0.98" fill="#ffffff" opacity="0.639"/>
    <circle cx="229.26" cy="67.65" r="1.59" fill="#ffffff" opacity="0.630"/>
    <circle cx="223.68" cy="120.99" r="1.71" fill="#ffffff" opacity="0.892"/>
    <circle cx="149.87" cy="103.06" r="1.48" fill="#ffffff" opacity="0.836"/>
    <circle cx="333.31" cy="121.91" r="1.55" fill="#ffffff" opacity="0.618"/>
    <circle cx="135.92" cy="70.86" r="1.16" fill="#ffffff" opacity="0.674"/>
    <circle cx="189.89" cy="71.02" r="1.17" fill="#ffffff" opacity="0.753"/>
    <circle cx="298.89" cy="112.83" r="0.89" fill="#ffffff" opacity="0.939"/>
    <circle cx="302.89" cy="97.29" r="1.41" fill="#ffffff" opacity="0.758"/>
    <circle cx="232.14" cy="134.73" r="1.88" fill="#ffffff" opacity="0.752"/>
    <circle cx="187.77" cy="103.38" r="1.19" fill="#ffffff" opacity="0.764"/>
    <circle cx="248.13" cy="71.90" r="0.92" fill="#ffffff" opacity="0.955"/>
    <circle cx="331.61" cy="80.54" r="1.41" fill="#ffffff" opacity="0.628"/>
    <circle cx="255.37" cy="100.84" r="1.33" fill="#ffffff" opacity="0.785"/>
    <circle cx="168.15" cy="128.68" r="1.14" fill="#ffffff" opacity="0.734"/>
    <circle cx="146.60" cy="108.24" r="1.75" fill="#ffffff" opacity="0.841"/>
    <circle cx="139.91" cy="92.99" r="1.61" fill="#ffffff" opacity="0.678"/>
    <circle cx="261.56" cy="135.39" r="1.89" fill="#ffffff" opacity="0.943"/>
    <circle cx="247.58" cy="76.21" r="0.97" fill="#ffffff" opacity="0.707"/>
    <circle cx="164.17" cy="133.50" r="1.27" fill="#ffffff" opacity="0.818"/>
    <circle cx="239.10" cy="101.52" r="1.25" fill="#ffffff" opacity="0.906"/>
    <circle cx="337.78" cy="120.43" r="1.79" fill="#ffffff" opacity="0.882"/>
    <circle cx="303.46" cy="118.07" r="1.58" fill="#ffffff" opacity="0.741"/>
    <circle cx="174.65" cy="114.66" r="1.02" fill="#ffffff" opacity="0.646"/>
    <circle cx="324.12" cy="74.97" r="1.07" fill="#ffffff" opacity="0.612"/>
    <circle cx="173.94" cy="117.86" r="0.92" fill="#ffffff" opacity="0.897"/>
    <circle cx="329.84" cy="84.96" r="0.85" fill="#ffffff" opacity="0.702"/>
    <circle cx="192.67" cy="91.08" r="1.25" fill="#ffffff" opacity="0.623"/>
    <circle cx="301.83" cy="113.68" r="1.77" fill="#ffffff" opacity="0.624"/>
    <circle cx="192.84" cy="89.78" r="1.61" fill="#ffffff" opacity="0.657"/>
    <circle cx="148.86" cy="94.46" r="1.70" fill="#ffffff" opacity="0.752"/>
    <circle cx="157.09" cy="130.52" r="1.77" fill="#ffffff" opacity="0.761"/>
    <circle cx="320.84" cy="99.67" r="1.94" fill="#ffffff" opacity="0.993"/>
    <circle cx="145.90" cy="95.45" r="1.26" fill="#ffffff" opacity="0.787"/>
    <circle cx="288.17" cy="70.79" r="1.76" fill="#ffffff" opacity="0.612"/>
    <circle cx="222.38" cy="79.35" r="1.85" fill="#ffffff" opacity="0.800"/>
    <circle cx="223.01" cy="77.86" r="1.82" fill="#ffffff" opacity="0.678"/>
    <circle cx="141.66" cy="66.43" r="1.89" fill="#ffffff" opacity="0.616"/>
    <circle cx="180.84" cy="88.12" r="1.07" fill="#ffffff" opacity="0.753"/>
    <circle cx="219.62" cy="62.82" r="0.86" fill="#ffffff" opacity="0.776"/>
    <circle cx="182.34" cy="107.24" r="1.25" fill="#ffffff" opacity="0.563"/>
    <circle cx="246.08" cy="103.85" r="1.58" fill="#ffffff" opacity="0.906"/>
    <circle cx="334.09" cy="76.47" r="1.80" fill="#ffffff" opacity="0.863"/>
    <circle cx="183.10" cy="106.51" r="1.34" fill="#ffffff" opacity="0.552"/>
    <circle cx="144.95" cy="76.39" r="1.80" fill="#ffffff" opacity="0.797"/>
    <circle cx="235.57" cy="63.07" r="0.93" fill="#ffffff" opacity="0.680"/>
    <circle cx="243.50" cy="65.87" r="1.30" fill="#ffffff" opacity="0.907"/>
    <circle cx="318.89" cy="115.03" r="1.89" fill="#ffffff" opacity="0.819"/>
    <circle cx="162.79" cy="110.04" r="1.09" fill="#ffffff" opacity="0.615"/>
    <circle cx="286.82" cy="66.29" r="1.09" fill="#ffffff" opacity="0.737"/>
    <circle cx="325.41" cy="75.96" r="1.97" fill="#ffffff" opacity="0.580"/>
    <circle cx="215.07" cy="67.02" r="1.99" fill="#ffffff" opacity="0.799"/>
    <circle cx="238.73" cy="130.93" r="1.56" fill="#ffffff" opacity="0.991"/>
    <circle cx="345.38" cy="62.79" r="1.75" fill="#ffffff" opacity="0.705"/>
    <circle cx="218.58" cy="128.32" r="1.73" fill="#ffffff" opacity="0.881"/>
    <circle cx="230.58" cy="84.86" r="1.46" fill="#ffffff" opacity="0.916"/>
    <circle cx="242.19" cy="67.70" r="1.36" fill="#ffffff" opacity="0.863"/>
    <circle cx="256.33" cy="100.78" r="0.88" fill="#ffffff" opacity="0.899"/>
    <circle cx="290.89" cy="77.48" r="0.85" fill="#ffffff" opacity="0.640"/>
    <circle cx="144.85" cy="83.08" r="1.42" fill="#ffffff" opacity="0.995"/>
    <circle cx="222.11" cy="112.38" r="1.70" fill="#ffffff" opacity="0.636"/>
    <circle cx="237.64" cy="98.70" r="1.84" fill="#ffffff" opacity="0.699"/>
    <circle cx="287.06" cy="75.67" r="1.87" fill="#ffffff" opacity="0.884"/>
    <circle cx="235.99" cy="70.72" r="1.97" fill="#ffffff" opacity="0.773"/>
    <circle cx="164.99" cy="119.06" r="1.42" fill="#ffffff" opacity="0.911"/>
    <circle cx="252.57" cy="131.95" r="1.52" fill="#ffffff" opacity="0.920"/>
    <circle cx="298.11" cy="128.55" r="0.90" fill="#ffffff" opacity="0.847"/>
    <circle cx="302.52" cy="104.26" r="1.31" fill="#ffffff" opacity="0.860"/>
    <circle cx="162.63" cy="103.86" r="1.84" fill="#ffffff" opacity="0.709"/>
    <circle cx="246.25" cy="96.44" r="1.98" fill="#ffffff" opacity="0.977"/>
    <circle cx="139.94" cy="79.34" r="1.24" fill="#ffffff" opacity="0.910"/>
    <circle cx="175.45" cy="124.13" r="0.97" fill="#ffffff" opacity="0.823"/>
    <circle cx="247.70" cy="95.84" r="0.88" fill="#ffffff" opacity="0.900"/>
    <circle cx="287.67" cy="123.71" r="1.48" fill="#ffffff" opacity="0.822"/>
    <circle cx="311.45" cy="93.12" r="1.25" fill="#ffffff" opacity="0.893"/>
    <circle cx="187.18" cy="75.07" r="1.28" fill="#ffffff" opacity="0.842"/>
    <circle cx="134.37" cy="68.03" r="1.68" fill="#ffffff" opacity="0.775"/>
    <circle cx="190.72" cy="69.15" r="1.11" fill="#ffffff" opacity="0.667"/>
    <circle cx="293.87" cy="113.24" r="1.14" fill="#ffffff" opacity="0.962"/>
    <circle cx="242.98" cy="93.06" r="1.82" fill="#ffffff" opacity="0.753"/>
    <circle cx="300.00" cy="87.86" r="0.91" fill="#ffffff" opacity="0.857"/>
    <circle cx="144.86" cy="93.55" r="1.22" fill="#ffffff" opacity="0.579"/>
    <circle cx="157.11" cy="93.98" r="1.82" fill="#ffffff" opacity="0.870"/>
    <circle cx="177.07" cy="97.34" r="1.75" fill="#ffffff" opacity="0.779"/>
    <circle cx="251.05" cy="127.25" r="0.97" fill="#ffffff" opacity="0.906"/>
    <circle cx="294.82" cy="118.14" r="1.24" fill="#ffffff" opacity="0.912"/>
    <circle cx="235.13" cy="66.28" r="0.90" fill="#ffffff" opacity="0.689"/>
    <circle cx="319.25" cy="113.55" r="1.43" fill="#ffffff" opacity="0.896"/>
    <circle cx="161.81" cy="110.93" r="1.97" fill="#ffffff" opacity="0.839"/>
    <circle cx="224.87" cy="111.45" r="1.21" fill="#ffffff" opacity="0.945"/>
    <circle cx="215.70" cy="69.35" r="1.02" fill="#ffffff" opacity="0.985"/>
    <circle cx="327.83" cy="67.03" r="0.87" fill="#ffffff" opacity="0.606"/>
    <circle cx="276.16" cy="151.80" r="0.53" fill="#ffffff" opacity="0.073"/>
    <circle cx="168.92" cy="203.16" r="0.93" fill="#ffffff" opacity="0.081"/>
    <circle cx="239.62" cy="200.80" r="0.69" fill="#ffffff" opacity="0.038"/>
    <circle cx="209.80" cy="187.62" r="0.65" fill="#ffffff" opacity="0.040"/>
    <circle cx="298.19" cy="77.64" r="0.76" fill="#ffffff" opacity="0.073"/>
    <circle cx="147.30" cy="27.96" r="0.69" fill="#ffffff" opacity="0.080"/>
    <circle cx="292.79" cy="109.51" r="0.75" fill="#ffffff" opacity="0.065"/>
    <circle cx="175.19" cy="9.45" r="0.59" fill="#ffffff" opacity="0.068"/>
    <circle cx="139.83" cy="101.23" r="0.50" fill="#ffffff" opacity="0.087"/>
    <circle cx="126.28" cy="112.23" r="0.78" fill="#ffffff" opacity="0.048"/>
    <circle cx="289.13" cy="124.25" r="0.61" fill="#ffffff" opacity="0.059"/>
    <circle cx="268.07" cy="194.45" r="0.52" fill="#ffffff" opacity="0.073"/>
    <circle cx="299.74" cy="90.68" r="0.56" fill="#ffffff" opacity="0.064"/>
    <circle cx="203.26" cy="179.21" r="0.49" fill="#ffffff" opacity="0.045"/>
    <circle cx="300.08" cy="141.84" r="0.57" fill="#ffffff" opacity="0.067"/>
    <circle cx="280.95" cy="164.26" r="0.70" fill="#ffffff" opacity="0.049"/>
    <circle cx="247.40" cy="10.44" r="0.66" fill="#ffffff" opacity="0.060"/>
    <circle cx="221.35" cy="148.39" r="0.96" fill="#ffffff" opacity="0.060"/>
    <circle cx="305.74" cy="86.03" r="0.55" fill="#ffffff" opacity="0.033"/>
    <circle cx="119.47" cy="103.87" r="0.76" fill="#ffffff" opacity="0.058"/>
    <circle cx="125.34" cy="73.09" r="0.60" fill="#ffffff" opacity="0.083"/>
    <circle cx="185.38" cy="161.22" r="0.70" fill="#ffffff" opacity="0.042"/>
    <circle cx="187.21" cy="81.66" r="0.65" fill="#ffffff" opacity="0.076"/>
    <circle cx="214.80" cy="46.10" r="0.98" fill="#ffffff" opacity="0.054"/>
    <circle cx="261.47" cy="25.92" r="0.96" fill="#ffffff" opacity="0.075"/>
    <circle cx="268.55" cy="186.12" r="0.65" fill="#ffffff" opacity="0.033"/>
    <circle cx="289.95" cy="158.13" r="0.63" fill="#ffffff" opacity="0.057"/>
    <circle cx="168.35" cy="43.51" r="0.53" fill="#ffffff" opacity="0.067"/>
    <circle cx="235.04" cy="26.23" r="0.54" fill="#ffffff" opacity="0.080"/>
    <circle cx="135.50" cy="78.47" r="0.51" fill="#ffffff" opacity="0.079"/>
    <circle cx="169.66" cy="176.47" r="0.99" fill="#ffffff" opacity="0.065"/>
    <circle cx="271.28" cy="-3.40" r="0.78" fill="#ffffff" opacity="0.032"/>
    <circle cx="114.25" cy="120.25" r="0.85" fill="#ffffff" opacity="0.077"/>
    <circle cx="144.85" cy="49.52" r="0.71" fill="#ffffff" opacity="0.040"/>
    <circle cx="171.39" cy="27.83" r="0.89" fill="#ffffff" opacity="0.039"/>
    <circle cx="217.85" cy="52.37" r="0.96" fill="#ffffff" opacity="0.037"/>
    <circle cx="314.56" cy="108.91" r="0.41" fill="#ffffff" opacity="0.071"/>
    <circle cx="145.30" cy="159.79" r="0.94" fill="#ffffff" opacity="0.082"/>
    <circle cx="235.11" cy="45.24" r="0.40" fill="#ffffff" opacity="0.042"/>
    <circle cx="193.22" cy="191.74" r="0.67" fill="#ffffff" opacity="0.049"/>
    <circle cx="297.07" cy="208.92" r="0.54" fill="#ffffff" opacity="0.051"/>
    <circle cx="254.83" cy="-6.65" r="0.75" fill="#ffffff" opacity="0.072"/>
    <circle cx="189.64" cy="58.30" r="0.47" fill="#ffffff" opacity="0.063"/>
    <circle cx="218.45" cy="169.87" r="0.45" fill="#ffffff" opacity="0.072"/>
    <circle cx="208.15" cy="171.09" r="0.95" fill="#ffffff" opacity="0.078"/>
    <circle cx="231.23" cy="159.10" r="0.77" fill="#ffffff" opacity="0.053"/>
    <circle cx="354.57" cy="85.64" r="0.97" fill="#ffffff" opacity="0.078"/>
    <circle cx="221.64" cy="170.66" r="0.80" fill="#ffffff" opacity="0.051"/>
    <circle cx="174.06" cy="124.98" r="0.64" fill="#ffffff" opacity="0.042"/>
    <circle cx="119.00" cy="70.08" r="0.79" fill="#ffffff" opacity="0.038"/>
    <circle cx="167.55" cy="35.58" r="0.47" fill="#ffffff" opacity="0.070"/>
    <circle cx="140.88" cy="80.42" r="0.34" fill="#ffffff" opacity="0.055"/>
    <circle cx="228.18" cy="43.17" r="0.84" fill="#ffffff" opacity="0.030"/>
    <circle cx="121.84" cy="61.32" r="0.58" fill="#ffffff" opacity="0.086"/>
    <circle cx="303.68" cy="38.98" r="0.44" fill="#ffffff" opacity="0.088"/>
    <circle cx="196.04" cy="191.68" r="0.94" fill="#ffffff" opacity="0.035"/>
    <circle cx="157.08" cy="58.32" r="0.81" fill="#ffffff" opacity="0.086"/>
    <circle cx="294.73" cy="66.81" r="0.92" fill="#ffffff" opacity="0.041"/>
    <circle cx="353.58" cy="37.22" r="0.58" fill="#ffffff" opacity="0.060"/>
    <circle cx="357.03" cy="50.75" r="0.95" fill="#ffffff" opacity="0.083"/>
    <circle cx="335.28" cy="105.55" r="0.38" fill="#ffffff" opacity="0.089"/>
    <circle cx="153.78" cy="75.95" r="0.96" fill="#ffffff" opacity="0.081"/>
    <circle cx="175.89" cy="113.06" r="0.38" fill="#ffffff" opacity="0.040"/>
    <circle cx="171.76" cy="118.02" r="0.43" fill="#ffffff" opacity="0.074"/>
    <circle cx="264.18" cy="7.69" r="0.83" fill="#ffffff" opacity="0.041"/>
    <circle cx="315.32" cy="4.33" r="0.88" fill="#ffffff" opacity="0.061"/>
    <circle cx="328.54" cy="153.68" r="0.43" fill="#ffffff" opacity="0.038"/>
    <circle cx="208.84" cy="162.51" r="0.48" fill="#ffffff" opacity="0.044"/>
    <circle cx="205.43" cy="202.14" r="0.31" fill="#ffffff" opacity="0.069"/>
    <circle cx="220.66" cy="48.55" r="0.38" fill="#ffffff" opacity="0.048"/>
    <circle cx="165.26" cy="150.51" r="0.93" fill="#ffffff" opacity="0.072"/>
    <circle cx="217.80" cy="155.09" r="0.94" fill="#ffffff" opacity="0.048"/>
    <circle cx="189.24" cy="55.46" r="0.39" fill="#ffffff" opacity="0.039"/>
    <circle cx="238.60" cy="1.55" r="0.59" fill="#ffffff" opacity="0.063"/>
    <circle cx="148.56" cy="116.95" r="0.76" fill="#ffffff" opacity="0.043"/>
    <circle cx="279.52" cy="59.55" r="0.61" fill="#ffffff" opacity="0.072"/>
    <circle cx="323.91" cy="144.83" r="0.34" fill="#ffffff" opacity="0.063"/>
    <circle cx="144.24" cy="96.70" r="0.40" fill="#ffffff" opacity="0.050"/>
    <circle cx="181.18" cy="92.44" r="0.44" fill="#ffffff" opacity="0.065"/>
    <circle cx="316.40" cy="149.12" r="0.87" fill="#ffffff" opacity="0.057"/>
    <circle cx="153.76" cy="92.80" r="0.34" fill="#ffffff" opacity="0.058"/>
    <circle cx="277.76" cy="-1.04" r="0.58" fill="#ffffff" opacity="0.079"/>
    <circle cx="237.46" cy="3.77" r="0.33" fill="#ffffff" opacity="0.051"/>
    <circle cx="359.27" cy="150.51" r="0.95" fill="#ffffff" opacity="0.034"/>
    <circle cx="288.06" cy="78.76" r="0.59" fill="#ffffff" opacity="0.076"/>
    <circle cx="189.11" cy="33.64" r="0.99" fill="#ffffff" opacity="0.053"/>
    <circle cx="323.67" cy="10.47" r="0.56" fill="#ffffff" opacity="0.071"/>
    <circle cx="190.98" cy="20.80" r="0.76" fill="#ffffff" opacity="0.051"/>
    <circle cx="280.39" cy="183.75" r="0.67" fill="#ffffff" opacity="0.074"/>
    <circle cx="248.59" cy="149.54" r="0.32" fill="#ffffff" opacity="0.048"/>
    <circle cx="196.74" cy="17.05" r="0.67" fill="#ffffff" opacity="0.079"/>
    <circle cx="241.21" cy="177.68" r="0.49" fill="#ffffff" opacity="0.086"/>
    <circle cx="230.77" cy="41.70" r="0.87" fill="#ffffff" opacity="0.055"/>
    <circle cx="306.17" cy="106.53" r="0.37" fill="#ffffff" opacity="0.032"/>
    <circle cx="153.17" cy="38.74" r="0.33" fill="#ffffff" opacity="0.074"/>
    <circle cx="183.81" cy="139.61" r="0.45" fill="#ffffff" opacity="0.082"/>
    <circle cx="324.69" cy="131.36" r="0.50" fill="#ffffff" opacity="0.079"/>
    <circle cx="231.25" cy="25.00" r="0.72" fill="#ffffff" opacity="0.070"/>
    <circle cx="208.15" cy="166.95" r="0.40" fill="#ffffff" opacity="0.070"/>
    <circle cx="253.40" cy="172.82" r="0.34" fill="#ffffff" opacity="0.087"/>
    <circle cx="329.46" cy="15.69" r="0.74" fill="#ffffff" opacity="0.056"/>
    <circle cx="112.27" cy="103.52" r="0.96" fill="#ffffff" opacity="0.070"/>
    <circle cx="256.84" cy="26.40" r="0.59" fill="#ffffff" opacity="0.039"/>
    <circle cx="161.26" cy="177.31" r="0.63" fill="#ffffff" opacity="0.081"/>
    <circle cx="206.59" cy="201.23" r="0.86" fill="#ffffff" opacity="0.085"/>
    <circle cx="122.24" cy="51.32" r="0.69" fill="#ffffff" opacity="0.038"/>
    <circle cx="242.97" cy="166.20" r="0.75" fill="#ffffff" opacity="0.085"/>
    <circle cx="272.90" cy="52.96" r="0.81" fill="#ffffff" opacity="0.041"/>
    <circle cx="227.98" cy="203.20" r="0.72" fill="#ffffff" opacity="0.082"/>
    <circle cx="282.03" cy="202.67" r="0.81" fill="#ffffff" opacity="0.064"/>
    <circle cx="121.44" cy="115.44" r="0.53" fill="#ffffff" opacity="0.087"/>
  </g>
</svg>