<?xml version="1.0" encoding="UTF-8"?>
<svg width="200" height="200" viewBox="0 0 200 200" fill="none" xmlns="http://www.w3.org/2000/svg">
  
  <g>
    <circle cx="76.93" cy="39.74" r="1.02" fill="#ffffff" opacity="0.500"/>
    <circle cx="76.35" cy="41.92" r="1.34" fill="#ffffff" opacity="0.506"/>
    <circle cx="78.04" cy="41.25" r="1.14" fill="#ffffff" opacity="0.512"/>
    <circle cx="76.52" cy="42.22" r="1.20" fill="#ffffff" opacity="0.519"/>
    <circle cx="76.81" cy="42.87" r="1.32" fill="#ffffff" opacity="0.525"/>
    <circle cx="78.19" cy="43.60" r="1.27" fill="#ffffff" opacity="0.531"/>
    <circle cx="79.04" cy="43.84" r="1.44" fill="#ffffff" opacity="0.537"/>
    <circle cx="79.10" cy="45.24" r="0.92" fill="#ffffff" opacity="0.544"/>
    <circle cx="79.93" cy="45.92" r="0.87" fill="#ffffff" opacity="0.550"/>
    <circle cx="78.42" cy="47.68" r="1.28" fill="#ffffff" opacity="0.556"/>
    <circle cx="80.20" cy="48.13" r="1.23" fill="#ffffff" opacity="0.562"/>
    <circle cx="80.84" cy="48.08" r="1.24" fill="#ffffff" opacity="0.569"/>
    <circle cx="80.83" cy="49.27" r="1.49" fill="#ffffff" opacity="0.575"/>
    <circle cx="80.59" cy="50.15" r="0.84" fill="#ffffff" opacity="0.581"/>
    <circle cx="80.15" cy="49.97" r="0.86" fill="#ffffff" opacity="0.588"/>
    <circle cx="80.45" cy="50.26" r="1.02" fill="#ffffff" opacity="0.594"/>
    <circle cx="81.59" cy="51.51" r="1.10" fill="#ffffff" opacity="0.600"/>
    <circle cx="80.99" cy="51.99" r="1.55" fill="#ffffff" opacity="0.606"/>
    <circle cx="82.20" cy="53.40" r="0.94" fill="#ffffff" opacity="0.613"/>
    <circle cx="82.67" cy="53.15" r="1.10" fill="#ffffff" opacity="0.619"/>
    <circle cx="83.50" cy="54.85" r="1.25" fill="#ffffff" opacity="0.625"/>
    <circle cx="83.16" cy="55.96" r="1.42" fill="#ffffff" opacity="0.631"/>
    <circle cx="82.49" cy="54.95" r="1.05" fill="#ffffff" opacity="0.637"/>
    <circle cx="82.86" cy="56.02" r="1.55" fill="#ffffff" opacity="0.644"/>
    <circle cx="84.43" cy="56.93" r="1.32" fill="#ffffff" opacity="0.650"/>
    <circle cx="83.72" cy="58.88" r="1.17" fill="#ffffff" opacity="0.656"/>
    <circle cx="83.73" cy="58.16" r="1.25" fill="#ffffff" opacity="0.662"/>
    <circle cx="84.02" cy="59.57" r="1.52" fill="#ffffff" opacity="0.669"/>
    <circle cx="84.60" cy="59.49" r="1.60" fill="#ffffff" opacity="0.675"/>
    <circle cx="85.12" cy="59.91" r="0.84" fill="#ffffff" opacity="0.681"/>
    <circle cx="84.58" cy="61.73" r="1.43" fill="#ffffff" opacity="0.688"/>
    <circle cx="85.53" cy="61.23" r="1.11" fill="#ffffff" opacity="0.694"/>
    <circle cx="87.02" cy="62.90" r="1.58" fill="#ffffff" opacity="0.700"/>
    <circle cx="87.03" cy="62.51" r="1.38" fill="#ffffff" opacity="0.706"/>
    <circle cx="86.95" cy="64.30" r="1.01" fill="#ffffff" opacity="0.713"/>
    <circle cx="87.15" cy="64.10" r="1.15" fill="#ffffff" opacity="0.719"/>
    <circle cx="87.05" cy="66.56" r="1.50" fill="#ffffff" opacity="0.725"/>
    <circle cx="86.94" cy="66.30" r="0.94" fill="#ffffff" opacity="0.731"/>
    <circle cx="88.60" cy="67.76" r="1.04" fill="#ffffff" opacity="0.738"/>
    <circle cx="88.32" cy="67.91" r="0.92" fill="#ffffff" opacity="0.744"/>
    <circle cx="88.87" cy="68.45" r="1.42" fill="#ffffff" opacity="0.750"/>
    <circle cx="88.67" cy="68.01" r="1.06" fill="#ffffff" opacity="0.756"/>
    <circle cx="87.89" cy="70.65" r="1.50" fill="#ffffff" opacity="0.762"/>
    <circle cx="89.89" cy="70.04" r="0.85" fill="#ffffff" opacity="0.769"/>
    <circle cx="90.28" cy="72.07" r="0.87" fill="#ffffff" opacity="0.775"/>
    <circle cx="89.75" cy="70.92" r="1.41" fill="#ffffff" opacity="0.781"/>
    <circle cx="90.63" cy="71.73" r="1.18" fill="#ffffff" opacity="0.787"/>
    <circle cx="90.47" cy="72.71" r="1.50" fill="#ffffff" opacity="0.794"/>
    <circle cx="90.49" cy="73.29" r="1.23" fill="#ffffff" opacity="0.800"/>
    <circle cx="91.43" cy="73.96" r="1.05" fill="#ffffff" opacity="0.806"/>
    <circle cx="92.28" cy="75.59" r="1.15" fill="#ffffff" opacity="0.812"/>
    <circle cx="91.57" cy="75.17" r="0.98" fill="#ffffff" opacity="0.819"/>
    <circle cx="91.48" cy="76.84" r="0.98" fill="#ffffff" opacity="0.825"/>
    <circle cx="91.53" cy="76.45" r="1.30" fill="#ffffff" opacity="0.831"/>
    <circle cx="91.84" cy="78.89" r="1.49" fill="#ffffff" opacity="0.838"/>
    <circle cx="91.80" cy="78.18" r="1.34" fill="#ffffff" opacity="0.844"/>
    <circle cx="92.39" cy="78.65" r="1.55" fill="#ffffff" opacity="0.850"/>
    <circle cx="93.43" cy="80.05" r="1.43" fill="#ffffff" opacity="0.856"/>
    <circle cx="94.22" cy="80.15" r="0.88" fill="#ffffff" opacity="0.863"/>
    <circle cx="93.72" cy="81.33" r="1.17" fill="#ffffff" opacity="0.869"/>
    <circle cx="94.64" cy="82.55" r="1.59" fill="#ffffff" opacity="0.875"/>
    <circle cx="93.61" cy="82.67" r="1.07" fill="#ffffff" opacity="0.881"/>
    <circle cx="95.50" cy="83.04" r="0.95" fill="#ffffff" opacity="0.887"/>
    <circle cx="94.93" cy="84.09" r="1.02" fill="#ffffff" opacity="0.894"/>
    <circle cx="94.80" cy="85.84" r="1.15" fill="#ffffff" opacity="0.900"/>
    <circle cx="96.38" cy="85.74" r="0.84" fill="#ffffff" opacity="0.906"/>
    <circle cx="96.96" cy="87.03" r="1.58" fill="#ffffff" opacity="0.912"/>
    <circle cx="97.10" cy="87.75" r="0.93" fill="#ffffff" opacity="0.919"/>
    <circle cx="96.47" cy="87.11" r="1.12" fill="#ffffff" opacity="0.925"/>
    <circle cx="95.86" cy="88.15" r="1.59" fill="#ffffff" opacity="0.931"/>
    <circle cx="96.59" cy="89.69" r="1.16" fill="#ffffff" opacity="0.938"/>
    <circle cx="97.21" cy="90.74" r="1.60" fill="#ffffff" opacity="0.944"/>
    <circle cx="97.78" cy="90.93" r="0.92" fill="#ffffff" opacity="0.950"/>
    <circle cx="97.53" cy="92.15" r="1.26" fill="#ffffff" opacity="0.956"/>
    <circle cx="98.34" cy="92.38" r="0.85" fill="#ffffff" opacity="0.963"/>
    <circle cx="98.72" cy="92.55" r="1.48" fill="#ffffff" opacity="0.969"/>
    <circle cx="98.11" cy="94.20" r="0.86" fill="#ffffff" opacity="0.975"/>
    <circle cx="98.46" cy="94.13" r="1.34" fill="#ffffff" opacity="0.981"/>
    <circle cx="98.86" cy="93.82" r="1.51" fill="#ffffff" opacity="0.988"/>
    <circle cx="99.17" cy="95.51" r="1.30" fill="#ffffff" opacity="0.994"/>
    <circle cx="99.83" cy="96.18" r="1.22" fill="#ffffff" opacity="1.000"/>
    <circle cx="101.20" cy="94.69" r="1.37" fill="#ffffff" opacity="0.994"/>
    <circle cx="100.04" cy="94.40" r="1.34" fill="#ffffff" opacity="0.988"/>
    <circle cx="100.46" cy="93.54" r="1.40" fill="#ffffff" opacity="0.981"/>
    <circle cx="100.27" cy="93.15" r="1.60" fill="#ffffff" opacity="0.975"/>
    <circle cx="102.50" cy="91.65" r="0.97" fill="#ffffff" opacity="0.969"/>
    <circle cx="101.26" cy="92.77" r="1.50" fill="#ffffff" opacity="0.963"/>
    <circle cx="102.84" cy="90.89" r="0.93" fill="#ffffff" opacity="0.956"/>
    <circle cx="103.04" cy="90.90" r="1.29" fill="#ffffff" opacity="0.950"/>
    <circle cx="103.65" cy="90.11" r="0.81" fill="#ffffff" opacity="0.944"/>
    <circle cx="103.59" cy="88.67" r="1.33" fill="#ffffff" opacity="0.938"/>
    <circle cx="104.13" cy="87.63" r="0.89" fill="#ffffff" opacity="0.931"/>
    <circle cx="102.68" cy="87.82" r="1.02" fill="#ffffff" opacity="0.925"/>
    <circle cx="104.02" cy="87.48" r="0.96" fill="#ffffff" opacity="0.919"/>
    <circle cx="104.37" cy="85.83" r="1.19" fill="#ffffff" opacity="0.912"/>
    <circle cx="105.23" cy="86.36" r="0.87" fill="#ffffff" opacity="0.906"/>
    <circle cx="104.51" cy="84.48" r="0.80" fill="#ffffff" opacity="0.900"/>
    <circle cx="105.53" cy="84.54" r="1.01" fill="#ffffff" opacity="0.894"/>
    <circle cx="105.76" cy="83.67" r="1.14" fill="#ffffff" opacity="0.887"/>
    <circle cx="104.52" cy="81.98" r="1.51" fill="#ffffff" opacity="0.881"/>
    <circle cx="106.69" cy="82.28" r="1.47" fill="#ffffff" opacity="0.875"/>
    <circle cx="106.31" cy="80.75" r="0.90" fill="#ffffff" opacity="0.869"/>
    <circle cx="106.02" cy="81.64" r="1.44" fill="#ffffff" opacity="0.863"/>
    <circle cx="107.47" cy="80.95" r="0.97" fill="#ffffff" opacity="0.856"/>
    <circle cx="106.48" cy="78.59" r="1.42" fill="#ffffff" opacity="0.850"/>
    <circle cx="108.11" cy="78.53" r="1.30" fill="#ffffff" opacity="0.844"/>
    <circle cx="106.87" cy="78.94" r="1.49" fill="#ffffff" opacity="0.838"/>
    <circle cx="108.89" cy="78.00" r="1.51" fill="#ffffff" opacity="0.831"/>
    <circle cx="107.18" cy="77.15" r="1.07" fill="#ffffff" opacity="0.825"/>
    <circle cx="109.37" cy="76.60" r="1.49" fill="#ffffff" opacity="0.819"/>
    <circle cx="109.41" cy="74.79" r="1.43" fill="#ffffff" opacity="0.812"/>
    <circle cx="108.23" cy="75.37" r="1.49" fill="#ffffff" opacity="0.806"/>
    <circle cx="108.76" cy="74.56" r="1.17" fill="#ffffff" opacity="0.800"/>
    <circle cx="109.23" cy="73.82" r="0.98" fill="#ffffff" opacity="0.794"/>
    <circle cx="108.93" cy="71.87" r="1.06" fill="#ffffff" opacity="0.787"/>
    <circle cx="110.99" cy="72.80" r="1.02" fill="#ffffff" opacity="0.781"/>
    <circle cx="110.81" cy="70.92" r="1.58" fill="#ffffff" opacity="0.775"/>
    <circle cx="110.88" cy="71.36" r="0.89" fill="#ffffff" opacity="0.769"/>
    <circle cx="112.09" cy="69.07" r="1.57" fill="#ffffff" opacity="0.762"/>
    <circle cx="110.90" cy="68.24" r="1.15" fill="#ffffff" opacity="0.756"/>
    <circle cx="112.16" cy="67.98" r="1.28" fill="#ffffff" opacity="0.750"/>
    <circle cx="112.00" cy="67.44" r="1.26" fill="#ffffff" opacity="0.744"/>
    <circle cx="111.75" cy="67.43" r="0.80" fill="#ffffff" opacity="0.738"/>
    <circle cx="113.45" cy="66.38" r="1.38" fill="#ffffff" opacity="0.731"/>
    <circle cx="113.36" cy="65.96" r="1.09" fill="#ffffff" opacity="0.725"/>
    <circle cx="112.24" cy="65.26" r="1.06" fill="#ffffff" opacity="0.719"/>
    <circle cx="113.04" cy="64.95" r="1.38" fill="#ffffff" opacity="0.713"/>
    <circle cx="113.31" cy="63.13" r="1.13" fill="#ffffff" opacity="0.706"/>
    <circle cx="113.81" cy="62.41" r="0.90" fill="#ffffff" opacity="0.700"/>
    <circle cx="114.14" cy="63.08" r="1.34" fill="#ffffff" opacity="0.694"/>
    <circle cx="115.45" cy="61.70" r="1.04" fill="#ffffff" opacity="0.688"/>
    <circle cx="115.00" cy="59.72" r="1.03" fill="#ffffff" opacity="0.681"/>
    <circle cx="115.04" cy="60.25" r="1.32" fill="#ffffff" opacity="0.675"/>
    <circle cx="115.41" cy="59.27" r="0.97" fill="#ffffff" opacity="0.669"/>
    <circle cx="115.72" cy="59.54" r="1.44" fill="#ffffff" opacity="0.662"/>
    <circle cx="115.37" cy="57.13" r="1.21" fill="#ffffff" opacity="0.656"/>
    <circle cx="116.63" cy="56.97" r="1.45" fill="#ffffff" opacity="0.650"/>
    <circle cx="117.18" cy="56.99" r="0.98" fill="#ffffff" opacity="0.644"/>
    <circle cx="116.31" cy="54.94" r="1.00" fill="#ffffff" opacity="0.637"/>
    <circle cx="117.18" cy="55.98" r="0.86" fill="#ffffff" opacity="0.631"/>
    <circle cx="117.34" cy="54.82" r="0.96" fill="#ffffff" opacity="0.625"/>
    <circle cx="118.23" cy="53.85" r="1.00" fill="#ffffff" opacity="0.619"/>
    <circle cx="118.44" cy="52.13" r="1.40" fill="#ffffff" opacity="0.613"/>
    <circle cx="118.97" cy="51.65" r="1.14" fill="#ffffff" opacity="0.606"/>
    <circle cx="118.01" cy="52.75" r="1.21" fill="#ffffff" opacity="0.600"/>
    <circle cx="118.04" cy="50.57" r="1.48" fill="#ffffff" opacity="0.594"/>
    <circle cx="119.18" cy="51.04" r="1.33" fill="#ffffff" opacity="0.588"/>
    <circle cx="120.59" cy="49.92" r="1.56" fill="#ffffff" opacity="0.581"/>
    <circle cx="120.68" cy="49.26" r="1.38" fill="#ffffff" opacity="0.575"/>
    <circle cx="120.16" cy="49.03" r="1.24" fill="#ffffff" opacity="0.569"/>
    <circle cx="121.28" cy="48.16" r="1.18" fill="#ffffff" opacity="0.562"/>
    <circle cx="120.23" cy="46.42" r="1.31" fill="#ffffff" opacity="0.556"/>
    <circle cx="121.59" cy="46.31" r="1.30" fill="#ffffff" opacity="0.550"/>
    <circle cx="120.85" cy="44.68" r="1.03" fill="#ffffff" opacity="0.544"/>
    <circle cx="121.13" cy="44.50" r="1.23" fill="#ffffff" opacity="0.537"/>
    <circle cx="121.15" cy="43.63" r="1.36" fill="#ffffff" opacity="0.531"/>
    <circle cx="122.63" cy="42.58" r="1.13" fill="#ffffff" opacity="0.525"/>
    <circle cx="122.58" cy="42.63" r="0.97" fill="#ffffff" opacity="0.519"/>
    <circle cx="122.61" cy="42.97" r="1.27" fill="#ffffff" opacity="0.512"/>
    <circle cx="123.48" cy="42.18" r="1.41" fill="#ffffff" opacity="0.506"/>
    <circle cx="77.93" cy="116.63" r="0.48" fill="#ffffff" opacity="0.075"/>
    <circle cx="138.93" cy="44.79" r="0.51" fill="#ffffff" opacity="0.075"/>
    <circle cx="50.44" cy="81.22" r="0.41" fill="#ffffff" opacity="0.043"/>
    <circle cx="71.44" cy="108.18" r="0.47" fill="#ffffff" opacity="0.071"/>
    <circle cx="70.36" cy="116.33" r="0.53" fill="#ffffff" opacity="0.038"/>
    <circle cx="77.73" cy="74.48" r="0.50" fill="#ffffff" opacity="0.064"/>
    <circle cx="152.37" cy="105.01" r="0.37" fill="#ffffff" opacity="0.058"/>
    <circle cx="141.49" cy="109.56" r="0.41" fill="#ffffff" opacity="0.050"/>
    <circle cx="103.08" cy="52.46" r="0.68" fill="#ffffff" opacity="0.080"/>
    <circle cx="99.53" cy="128.95" r="0.31" fill="#ffffff" opacity="0.062"/>
    <circle cx="142.60" cy="95.98" r="0.63" fill="#ffffff" opacity="0.077"/>
    <circle cx="66.92" cy="49.40" r="0.77" fill="#ffffff" opacity="0.042"/>
    <circle cx="135.20" cy="100.53" r="0.36" fill="#ffffff" opacity="0.070"/>
    <circle cx="65.17" cy="81.19" r="0.65" fill="#ffffff" opacity="0.076"/>
    <circle cx="125.61" cy="141.09" r="0.67" fill="#ffffff" opacity="0.037"/>
    <circle cx="127.30" cy="37.31" r="0.35" fill="#ffffff" opacity="0.032"/>
    <circle cx="79.36" cy="146.32" r="0.78" fill="#ffffff" opacity="0.054"/>
    <circle cx="92.86" cy="64.05" r="0.65" fill="#ffffff" opacity="0.068"/>
    <circle cx="146.36" cy="130.54" r="0.73" fill="#ffffff" opacity="0.066"/>
    <circle cx="147.39" cy="141.10" r="0.69" fill="#ffffff" opacity="0.051"/>
    <circle cx="60.97" cy="114.85" r="0.55" fill="#ffffff" opacity="0.050"/>
    <circle cx="134.91" cy="47.69" r="0.35" fill="#ffffff" opacity="0.088"/>
    <circle cx="60.60" cy="50.97" r="0.65" fill="#ffffff" opacity="0.056"/>
    <circle cx="93.42" cy="31.58" r="0.44" fill="#ffffff" opacity="0.078"/>
    <circle cx="53.95" cy="84.74" r="0.52" fill="#ffffff" opacity="0.074"/>
    <circle cx="93.00" cy="156.26" r="0.72" fill="#ffffff" opacity="0.035"/>
    <circle cx="128.54" cy="69.75" r="0.53" fill="#ffffff" opacity="0.067"/>
    <circle cx="77.51" cy="117.39" r="0.73" fill="#ffffff" opacity="0.041"/>
    <circle cx="113.84" cy="153.07" r="0.47" fill="#ffffff" opacity="0.083"/>
    <circle cx="87.94" cy="57.92" r="0.31" fill="#ffffff" opacity="0.087"/>
    <circle cx="148.03" cy="124.65" r="0.54" fill="#ffffff" opacity="0.075"/>
    <circle cx="80.59" cy="46.41" r="0.55" fill="#ffffff" opacity="0.078"/>
    <circle cx="131.67" cy="116.96" r="0.65" fill="#ffffff" opacity="0.048"/>
    <circle cx="59.00" cy="72.94" r="0.57" fill="#ffffff" opacity="0.056"/>
    <circle cx="98.93" cy="54.11" r="0.65" fill="#ffffff" opacity="0.046"/>
    <circle cx="99.70" cy="130.34" r="0.40" fill="#ffffff" opacity="0.037"/>
    <circle cx="44.01" cy="83.17" r="0.39" fill="#ffffff" opacity="0.043"/>
    <circle cx="44.19" cy="101.56" r="0.79" fill="#ffffff" opacity="0.061"/>
    <circle cx="93.08" cy="128.90" r="0.40" fill="#ffffff" opacity="0.044"/>
    <circle cx="113.09" cy="123.56" r="0.57" fill="#ffffff" opacity="0.046"/>
    <circle cx="149.27" cy="87.97" r="0.65" fill="#ffffff" opacity="0.038"/>
    <circle cx="132.30" cy="60.93" r="0.74" fill="#ffffff" opacity="0.064"/>
    <circle cx="54.99" cy="104.76" r="0.39" fill="#ffffff" opacity="0.033"/>
    <circle cx="144.00" cy="78.92" r="0.71" fill="#ffffff" opacity="0.054"/>
    <circle cx="147.06" cy="119.64" r="0.33" fill="#ffffff" opacity="0.039"/>
    <circle cx="62.21" cy="80.25" r="0.80" fill="#ffffff" opacity="0.037"/>
    <circle cx="104.70" cy="44.39" r="0.70" fill="#ffffff" opacity="0.044"/>
    <circle cx="54.25" cy="89.47" r="0.52" fill="#ffffff" opacity="0.082"/>
    <circle cx="140.91" cy="93.43" r="0.61" fill="#ffffff" opacity="0.067"/>
    <circle cx="96.01" cy="32.01" r="0.40" fill="#ffffff" opacity="0.043"/>
    <circle cx="80.98" cy="65.85" r="0.39" fill="#ffffff" opacity="0.035"/>
    <circle cx="146.21" cy="96.78" r="0.60" fill="#ffffff" opacity="0.047"/>
    <circle cx="106.44" cy="151.08" r="0.65" fill="#ffffff" opacity="0.057"/>
    <circle cx="75.75" cy="37.57" r="0.69" fill="#ffffff" opacity="0.068"/>
    <circle cx="66.32" cy="42.04" r="0.51" fill="#ffffff" opacity="0.063"/>
    <circle cx="62.39" cy="45.83" r="0.71" fill="#ffffff" opacity="0.034"/>
    <circle cx="120.70" cy="131.47" r="0.67" fill="#ffffff" opacity="0.064"/>
    <circle cx="91.72" cy="129.47" r="0.64" fill="#ffffff" opacity="0.072"/>
    <circle cx="144.94" cy="79.08" r="0.55" fill="#ffffff" opacity="0.035"/>
    <circle cx="144.13" cy="107.29" r="0.46" fill="#ffffff" opacity="0.045"/>
    <circle cx="154.28" cy="131.08" r="0.72" fill="#ffffff" opacity="0.065"/>
    <circle cx="162.86" cy="75.92" r="0.64" fill="#ffffff" opacity="0.046"/>
    <circle cx="155.41" cy="110.31" r="0.54" fill="#ffffff" opacity="0.069"/>
    <circle cx="131.57" cy="77.62" r="0.59" fill="#ffffff" opacity="0.068"/>
  </g>
</svg>