<?xml version="1.0" encoding="UTF-8"?>
<svg width="400" height="400" viewBox="0 0 400 400" fill="none" xmlns="http://www.w3.org/2000/svg">
  <g>
    <circle cx="328.05" cy="228.39" r="0.54" fill="#000000" opacity="0.101"/>
    <circle cx="148.55" cy="20.59" r="0.55" fill="#000000" opacity="0.103"/>
    <circle cx="279.64" cy="204.71" r="0.65" fill="#000000" opacity="0.064"/>
    <circle cx="93.18" cy="91.91" r="0.57" fill="#000000" opacity="0.074"/>
    <circle cx="197.26" cy="44.79" r="0.65" fill="#000000" opacity="0.062"/>
    <circle cx="199.25" cy="236.65" r="0.40" fill="#000000" opacity="0.050"/>
    <circle cx="50.25" cy="117.67" r="0.39" fill="#000000" opacity="0.057"/>
    <circle cx="51.15" cy="166.83" r="0.79" fill="#000000" opacity="0.082"/>
    <circle cx="183.02" cy="232.72" r="0.40" fill="#000000" opacity="0.058"/>
    <circle cx="231.40" cy="218.12" r="0.57" fill="#000000" opacity="0.062"/>
    <circle cx="329.47" cy="130.91" r="0.65" fill="#000000" opacity="0.050"/>
    <circle cx="284.32" cy="60.45" r="0.74" fill="#000000" opacity="0.086"/>
    <circle cx="83.15" cy="174.75" r="0.39" fill="#000000" opacity="0.044"/>
    <circle cx="314.70" cy="107.47" r="0.71" fill="#000000" opacity="0.072"/>
    <circle cx="324.53" cy="214.55" r="0.33" fill="#000000" opacity="0.052"/>
    <circle cx="103.68" cy="111.86" r="0.80" fill="#000000" opacity="0.049"/>
    <circle cx="212.40" cy="15.69" r="0.70" fill="#000000" opacity="0.058"/>
    <circle cx="81.09" cy="135.02" r="0.52" fill="#000000" opacity="0.109"/>
    <circle cx="304.31" cy="145.46" r="0.61" fill="#000000" opacity="0.089"/>
    <circle cx="189.20" cy="-21.23" r="0.40" fill="#000000" opacity="0.057"/>
    <circle cx="152.74" cy="77.09" r="0.39" fill="#000000" opacity="0.046"/>
    <circle cx="320.10" cy="154.02" r="0.60" fill="#000000" opacity="0.063"/>
    <circle cx="217.15" cy="298.69" r="0.65" fill="#000000" opacity="0.076"/>
    <circle cx="134.44" cy="-5.95" r="0.69" fill="#000000" opacity="0.090"/>
    <circle cx="108.88" cy="6.04" r="0.51" fill="#000000" opacity="0.084"/>
    <circle cx="98.43" cy="16.49" r="0.71" fill="#000000" opacity="0.046"/>
    <circle cx="252.80" cy="242.47" r="0.67" fill="#000000" opacity="0.086"/>
    <circle cx="179.57" cy="234.56" r="0.64" fill="#000000" opacity="0.096"/>
    <circle cx="317.44" cy="107.77" r="0.55" fill="#000000" opacity="0.046"/>
    <circle cx="314.45" cy="181.28" r="0.46" fill="#000000" opacity="0.060"/>
    <circle cx="347.06" cy="247.06" r="0.72" fill="#000000" opacity="0.086"/>
    <circle cx="370.66" cy="97.48" r="0.64" fill="#000000" opacity="0.062"/>
    <circle cx="348.13" cy="190.26" r="0.54" fill="#000000" opacity="0.092"/>
    <circle cx="278.81" cy="106.11" r="0.59" fill="#000000" opacity="0.091"/>
    <circle cx="118.62" cy="156.23" r="0.47" fill="#000000" opacity="0.067"/>
    <circle cx="121.16" cy="8.30" r="0.46" fill="#000000" opacity="0.095"/>
    <circle cx="158.78" cy="320.33" r="0.71" fill="#000000" opacity="0.084"/>
    <circle cx="98.72" cy="181.54" r="0.46" fill="#000000" opacity="0.118"/>
    <circle cx="95.32" cy="223.93" r="0.79" fill="#000000" opacity="0.093"/>
    <circle cx="88.02" cy="121.30" r="0.39" fill="#000000" opacity="0.069"/>
    <circle cx="205.62" cy="13.19" r="0.68" fill="#000000" opacity="0.056"/>
    <circle cx="36.71" cy="99.83" r="0.52" fill="#000000" opacity="0.096"/>
    <circle cx="327.44" cy="273.84" r="0.60" fill="#000000" opacity="0.059"/>
    <circle cx="271.27" cy="261.81" r="0.58" fill="#000000" opacity="0.047"/>
    <circle cx="369.64" cy="143.74" r="0.53" fill="#000000" opacity="0.049"/>
    <circle cx="261.82" cy="43.05" r="0.66" fill="#000000" opacity="0.081"/>
    <circle cx="176.33" cy="311.68" r="0.79" fill="#000000" opacity="0.059"/>
    <circle cx="92.88" cy="116.25" r="0.76" fill="#000000" opacity="0.081"/>
    <circle cx="319.50" cy="38.83" r="0.44" fill="#000000" opacity="0.103"/>
    <circle cx="51.87" cy="239.68" r="0.55" fill="#000000" opacity="0.106"/>
    <circle cx="178.74" cy="253.58" r="0.59" fill="#000000" opacity="0.120"/>
    <circle cx="112.53" cy="157.70" r="0.57" fill="#000000" opacity="0.068"/>
    <circle cx="76.75" cy="110.31" r="0.53" fill="#000000" opacity="0.066"/>
    <circle cx="255.15" cy="287.91" r="0.59" fill="#000000" opacity="0.059"/>
    <circle cx="212.21" cy="76.61" r="0.67" fill="#000000" opacity="0.096"/>
    <circle cx="242.60" cy="47.13" r="0.63" fill="#000000" opacity="0.106"/>
    <circle cx="324.03" cy="136.98" r="0.32" fill="#000000" opacity="0.080"/>
    <circle cx="60.63" cy="63.33" r="0.74" fill="#000000" opacity="0.075"/>
    <circle cx="80.79" cy="132.39" r="0.66" fill="#000000" opacity="0.073"/>
    <circle cx="150.28" cy="79.06" r="0.53" fill="#000000" opacity="0.118"/>
    <circle cx="122.80" cy="276.11" r="0.62" fill="#000000" opacity="0.108"/>
    <circle cx="298.38" cy="20.69" r="0.49" fill="#000000" opacity="0.065"/>
    <circle cx="170.06" cy="1.62" r="0.74" fill="#000000" opacity="0.043"/>
    <circle cx="326.85" cy="210.16" r="0.76" fill="#000000" opacity="0.120"/>
    <circle cx="197.60" cy="33.68" r="0.35" fill="#000000" opacity="0.091"/>
    <circle cx="283.12" cy="66.31" r="0.65" fill="#000000" opacity="0.112"/>
    <circle cx="350.76" cy="196.82" r="0.45" fill="#000000" opacity="0.070"/>
    <circle cx="278.57" cy="254.05" r="0.58" fill="#000000" opacity="0.103"/>
    <circle cx="238.63" cy="222.25" r="0.74" fill="#000000" opacity="0.090"/>
    <circle cx="209.78" cy="321.55" r="0.37" fill="#000000" opacity="0.077"/>
    <circle cx="197.52" cy="251.10" r="0.30" fill="#000000" opacity="0.104"/>
    <circle cx="317.57" cy="67.93" r="0.38" fill="#000000" opacity="0.075"/>
    <circle cx="123.80" cy="263.27" r="0.62" fill="#000000" opacity="0.074"/>
    <circle cx="199.90" cy="314.57" r="0.40" fill="#000000" opacity="0.071"/>
    <circle cx="103.36" cy="162.23" r="0.59" fill="#000000" opacity="0.086"/>
    <circle cx="303.31" cy="147.25" r="0.79" fill="#000000" opacity="0.093"/>
    <circle cx="179.70" cy="282.96" r="0.64" fill="#000000" opacity="0.100"/>
    <circle cx="330.43" cy="193.52" r="0.55" fill="#000000" opacity="0.112"/>
    <circle cx="164.47" cy="305.52" r="0.60" fill="#000000" opacity="0.068"/>
    <circle cx="109.51" cy="47.23" r="0.64" fill="#000000" opacity="0.098"/>
    <circle cx="157.01" cy="46.71" r="1.22" fill="#000000" opacity="0.500"/>
    <circle cx="155.58" cy="50.93" r="1.54" fill="#000000" opacity="0.505"/>
    <circle cx="159.01" cy="49.05" r="1.34" fill="#000000" opacity="0.510"/>
    <circle cx="155.59" cy="50.68" r="1.40" fill="#000000" opacity="0.515"/>
    <circle cx="156.01" cy="51.62" r="1.52" fill="#000000" opacity="0.520"/>
    <circle cx="158.77" cy="52.75" r="1.47" fill="#000000" opacity="0.525"/>
    <circle cx="160.39" cy="52.82" r="1.64" fill="#000000" opacity="0.530"/>
    <circle cx="160.33" cy="55.35" r="1.12" fill="#000000" opacity="0.535"/>
    <circle cx="161.92" cy="56.36" r="1.07" fill="#000000" opacity="0.540"/>
    <circle cx="158.50" cy="59.68" r="1.48" fill="#000000" opacity="0.545"/>
    <circle cx="162.12" cy="60.19" r="1.43" fill="#000000" opacity="0.550"/>
    <circle cx="163.30" cy="59.64" r="1.44" fill="#000000" opacity="0.555"/>
    <circle cx="163.09" cy="61.75" r="1.69" fill="#000000" opacity="0.560"/>
    <circle cx="162.40" cy="63.17" r="1.04" fill="#000000" opacity="0.565"/>
    <circle cx="161.27" cy="62.34" r="1.06" fill="#000000" opacity="0.570"/>
    <circle cx="161.73" cy="62.53" r="1.22" fill="#000000" opacity="0.575"/>
    <circle cx="163.97" cy="64.74" r="1.30" fill="#000000" opacity="0.580"/>
    <circle cx="162.50" cy="65.33" r="1.75" fill="#000000" opacity="0.585"/>
    <circle cx="164.90" cy="67.90" r="1.14" fill="#000000" opacity="0.590"/>
    <circle cx="165.70" cy="66.93" r="1.30" fill="#000000" opacity="0.595"/>
    <circle cx="167.30" cy="70.10" r="1.45" fill="#000000" opacity="0.600"/>
    <circle cx="166.37" cy="72.04" r="1.62" fill="#000000" opacity="0.605"/>
    <circle cx="164.77" cy="69.44" r="1.25" fill="#000000" opacity="0.610"/>
    <circle cx="165.38" cy="71.27" r="1.75" fill="#000000" opacity="0.615"/>
    <circle cx="168.54" cy="72.77" r="1.52" fill="#000000" opacity="0.620"/>
    <circle cx="166.82" cy="76.49" r="1.37" fill="#000000" opacity="0.625"/>
    <circle cx="166.67" cy="74.53" r="1.45" fill="#000000" opacity="0.630"/>
    <circle cx="167.10" cy="77.07" r="1.72" fill="#000000" opacity="0.635"/>
    <circle cx="168.15" cy="76.47" r="1.80" fill="#000000" opacity="0.640"/>
    <circle cx="169.08" cy="76.92" r="1.04" fill="#000000" opacity="0.645"/>
    <circle cx="167.72" cy="80.36" r="1.63" fill="#000000" opacity="0.650"/>
    <circle cx="169.56" cy="78.87" r="1.31" fill="#000000" opacity="0.655"/>
    <circle cx="172.56" cy="81.98" r="1.78" fill="#000000" opacity="0.660"/>
    <circle cx="172.39" cy="80.70" r="1.58" fill="#000000" opacity="0.665"/>
    <circle cx="172.03" cy="84.08" r="1.21" fill="#000000" opacity="0.670"/>
    <circle cx="172.28" cy="83.21" r="1.35" fill="#000000" opacity="0.675"/>
    <circle cx="171.88" cy="88.01" r="1.70" fill="#000000" opacity="0.680"/>
    <circle cx="171.46" cy="87.01" r="1.14" fill="#000000" opacity="0.685"/>
    <circle cx="174.81" cy="89.70" r="1.24" fill="#000000" opacity="0.690"/>
    <circle cx="174.02" cy="89.56" r="1.12" fill="#000000" opacity="0.695"/>
    <circle cx="175.01" cy="90.28" r="1.62" fill="#000000" opacity="0.700"/>
    <circle cx="174.40" cy="88.90" r="1.26" fill="#000000" opacity="0.705"/>
    <circle cx="172.55" cy="94.09" r="1.70" fill="#000000" opacity="0.710"/>
    <circle cx="176.63" cy="92.34" r="1.05" fill="#000000" opacity="0.715"/>
    <circle cx="177.27" cy="96.23" r="1.07" fill="#000000" opacity="0.720"/>
    <circle cx="175.95" cy="93.33" r="1.61" fill="#000000" opacity="0.725"/>
    <circle cx="177.64" cy="94.63" r="1.38" fill="#000000" opacity="0.730"/>
    <circle cx="177.11" cy="96.27" r="1.70" fill="#000000" opacity="0.735"/>
    <circle cx="176.98" cy="97.07" r="1.43" fill="#000000" opacity="0.740"/>
    <circle cx="178.79" cy="98.05" r="1.25" fill="#000000" opacity="0.745"/>
    <circle cx="180.41" cy="101.09" r="1.35" fill="#000000" opacity="0.750"/>
    <circle cx="178.71" cy="99.75" r="1.18" fill="#000000" opacity="0.755"/>
    <circle cx="178.34" cy="102.88" r="1.18" fill="#000000" opacity="0.760"/>
    <circle cx="178.25" cy="101.59" r="1.50" fill="#000000" opacity="0.765"/>
    <circle cx="178.72" cy="106.36" r="1.69" fill="#000000" opacity="0.770"/>
    <circle cx="178.45" cy="104.40" r="1.54" fill="#000000" opacity="0.775"/>
    <circle cx="179.53" cy="104.96" r="1.75" fill="#000000" opacity="0.780"/>
    <circle cx="181.56" cy="107.52" r="1.63" fill="#000000" opacity="0.785"/>
    <circle cx="183.06" cy="107.29" r="1.08" fill="#000000" opacity="0.790"/>
    <circle cx="181.81" cy="109.36" r="1.37" fill="#000000" opacity="0.795"/>
    <circle cx="183.58" cy="111.51" r="1.79" fill="#000000" opacity="0.800"/>
    <circle cx="181.19" cy="111.33" r="1.27" fill="#000000" opacity="0.805"/>
    <circle cx="185.05" cy="111.67" r="1.15" fill="#000000" opacity="0.810"/>
    <circle cx="183.63" cy="113.48" r="1.22" fill="#000000" opacity="0.815"/>
    <circle cx="183.18" cy="116.76" r="1.35" fill="#000000" opacity="0.820"/>
    <circle cx="186.35" cy="116.12" r="1.04" fill="#000000" opacity="0.825"/>
    <circle cx="187.41" cy="118.43" r="1.78" fill="#000000" opacity="0.830"/>
    <circle cx="187.52" cy="119.52" r="1.13" fill="#000000" opacity="0.835"/>
    <circle cx="185.98" cy="117.71" r="1.32" fill="#000000" opacity="0.840"/>
    <circle cx="184.50" cy="119.48" r="1.79" fill="#000000" opacity="0.845"/>
    <circle cx="185.86" cy="122.32" r="1.36" fill="#000000" opacity="0.850"/>
    <circle cx="187.01" cy="124.13" r="1.80" fill="#000000" opacity="0.855"/>
    <circle cx="188.04" cy="124.09" r="1.12" fill="#000000" opacity="0.860"/>
    <circle cx="187.31" cy="126.25" r="1.46" fill="#000000" opacity="0.865"/>
    <circle cx="188.85" cy="126.29" r="1.05" fill="#000000" opacity="0.870"/>
    <circle cx="189.47" cy="126.22" r="1.68" fill="#000000" opacity="0.875"/>
    <circle cx="188.00" cy="129.31" r="1.06" fill="#000000" opacity="0.880"/>
    <circle cx="188.56" cy="128.70" r="1.54" fill="#000000" opacity="0.885"/>
    <circle cx="189.22" cy="127.60" r="1.71" fill="#000000" opacity="0.890"/>
    <circle cx="189.70" cy="130.76" r="1.50" fill="#000000" opacity="0.895"/>
    <circle cx="190.92" cy="131.74" r="1.42" fill="#000000" opacity="0.900"/>
    <circle cx="193.66" cy="131.07" r="1.57" fill="#000000" opacity="0.905"/>
    <circle cx="190.98" cy="132.96" r="1.54" fill="#000000" opacity="0.910"/>
    <circle cx="191.69" cy="133.64" r="1.60" fill="#000000" opacity="0.915"/>
    <circle cx="191.11" cy="135.31" r="1.80" fill="#000000" opacity="0.920"/>
    <circle cx="195.68" cy="134.61" r="1.17" fill="#000000" opacity="0.925"/>
    <circle cx="192.84" cy="139.50" r="1.70" fill="#000000" opacity="0.930"/>
    <circle cx="196.03" cy="138.00" r="1.13" fill="#000000" opacity="0.935"/>
    <circle cx="196.26" cy="140.53" r="1.49" fill="#000000" opacity="0.940"/>
    <circle cx="197.39" cy="141.34" r="1.01" fill="#000000" opacity="0.945"/>
    <circle cx="197.06" cy="140.79" r="1.53" fill="#000000" opacity="0.950"/>
    <circle cx="198.04" cy="141.08" r="1.09" fill="#000000" opacity="0.955"/>
    <circle cx="194.75" cy="143.99" r="1.22" fill="#000000" opacity="0.960"/>
    <circle cx="197.42" cy="145.75" r="1.16" fill="#000000" opacity="0.965"/>
    <circle cx="197.98" cy="144.75" r="1.39" fill="#000000" opacity="0.970"/>
    <circle cx="199.64" cy="148.39" r="1.07" fill="#000000" opacity="0.975"/>
    <circle cx="197.91" cy="146.87" r="1.00" fill="#000000" opacity="0.980"/>
    <circle cx="199.91" cy="149.52" r="1.21" fill="#000000" opacity="0.985"/>
    <circle cx="200.21" cy="150.17" r="1.34" fill="#000000" opacity="0.990"/>
    <circle cx="197.37" cy="149.07" r="1.71" fill="#000000" opacity="0.995"/>
    <circle cx="201.81" cy="152.20" r="1.67" fill="#000000" opacity="1.000"/>
    <circle cx="200.81" cy="149.39" r="1.10" fill="#000000" opacity="0.995"/>
    <circle cx="200.01" cy="151.72" r="1.64" fill="#000000" opacity="0.990"/>
    <circle cx="202.92" cy="150.69" r="1.17" fill="#000000" opacity="0.985"/>
    <circle cx="200.62" cy="146.09" r="1.62" fill="#000000" opacity="0.980"/>
    <circle cx="203.90" cy="146.42" r="1.50" fill="#000000" opacity="0.975"/>
    <circle cx="201.07" cy="147.74" r="1.69" fill="#000000" opacity="0.970"/>
    <circle cx="205.19" cy="146.17" r="1.71" fill="#000000" opacity="0.965"/>
    <circle cx="201.36" cy="144.81" r="1.27" fill="#000000" opacity="0.960"/>
    <circle cx="205.86" cy="144.07" r="1.69" fill="#000000" opacity="0.955"/>
    <circle cx="205.75" cy="140.64" r="1.63" fill="#000000" opacity="0.950"/>
    <circle cx="203.04" cy="142.32" r="1.69" fill="#000000" opacity="0.945"/>
    <circle cx="203.99" cy="141.04" r="1.37" fill="#000000" opacity="0.940"/>
    <circle cx="204.80" cy="139.91" r="1.18" fill="#000000" opacity="0.935"/>
    <circle cx="203.97" cy="136.18" r="1.26" fill="#000000" opacity="0.930"/>
    <circle cx="208.17" cy="138.62" r="1.22" fill="#000000" opacity="0.925"/>
    <circle cx="207.61" cy="135.05" r="1.78" fill="#000000" opacity="0.920"/>
    <circle cx="207.58" cy="136.43" r="1.09" fill="#000000" opacity="0.915"/>
    <circle cx="209.96" cy="131.99" r="1.77" fill="#000000" opacity="0.910"/>
    <circle cx="207.24" cy="130.65" r="1.35" fill="#000000" opacity="0.905"/>
    <circle cx="209.75" cy="130.53" r="1.48" fill="#000000" opacity="0.900"/>
    <circle cx="209.21" cy="129.82" r="1.46" fill="#000000" opacity="0.895"/>
    <circle cx="208.50" cy="130.24" r="1.00" fill="#000000" opacity="0.890"/>
    <circle cx="211.94" cy="128.45" r="1.58" fill="#000000" opacity="0.885"/>
    <circle cx="211.55" cy="128.01" r="1.29" fill="#000000" opacity="0.880"/>
    <circle cx="208.98" cy="126.95" r="1.26" fill="#000000" opacity="0.875"/>
    <circle cx="210.51" cy="126.74" r="1.58" fill="#000000" opacity="0.870"/>
    <circle cx="210.88" cy="123.29" r="1.33" fill="#000000" opacity="0.865"/>
    <circle cx="211.77" cy="122.20" r="1.10" fill="#000000" opacity="0.860"/>
    <circle cx="212.29" cy="124.06" r="1.54" fill="#000000" opacity="0.855"/>
    <circle cx="214.89" cy="121.57" r="1.24" fill="#000000" opacity="0.850"/>
    <circle cx="213.74" cy="117.78" r="1.23" fill="#000000" opacity="0.845"/>
    <circle cx="213.64" cy="119.35" r="1.52" fill="#000000" opacity="0.840"/>
    <circle cx="214.24" cy="117.70" r="1.17" fill="#000000" opacity="0.835"/>
    <circle cx="214.71" cy="118.72" r="1.64" fill="#000000" opacity="0.830"/>
    <circle cx="213.79" cy="114.03" r="1.41" fill="#000000" opacity="0.825"/>
    <circle cx="216.30" cy="114.12" r="1.65" fill="#000000" opacity="0.820"/>
    <circle cx="217.26" cy="114.61" r="1.18" fill="#000000" opacity="0.815"/>
    <circle cx="215.23" cy="110.67" r="1.20" fill="#000000" opacity="0.810"/>
    <circle cx="216.90" cy="113.33" r="1.06" fill="#000000" opacity="0.805"/>
    <circle cx="217.06" cy="111.32" r="1.16" fill="#000000" opacity="0.800"/>
    <circle cx="218.76" cy="109.68" r="1.20" fill="#000000" opacity="0.795"/>
    <circle cx="219.02" cy="106.46" r="1.60" fill="#000000" opacity="0.790"/>
    <circle cx="219.96" cy="105.88" r="1.34" fill="#000000" opacity="0.785"/>
    <circle cx="217.74" cy="108.66" r="1.41" fill="#000000" opacity="0.780"/>
    <circle cx="217.61" cy="104.45" r="1.68" fill="#000000" opacity="0.775"/>
    <circle cx="219.87" cy="105.90" r="1.53" fill="#000000" opacity="0.770"/>
    <circle cx="222.68" cy="103.94" r="1.76" fill="#000000" opacity="0.765"/>
    <circle cx="222.69" cy="102.99" r="1.58" fill="#000000" opacity="0.760"/>
    <circle cx="221.39" cy="102.93" r="1.44" fill="#000000" opacity="0.755"/>
    <circle cx="223.59" cy="101.51" r="1.38" fill="#000000" opacity="0.750"/>
    <circle cx="221.16" cy="98.26" r="1.51" fill="#000000" opacity="0.745"/>
    <circle cx="223.87" cy="98.45" r="1.50" fill="#000000" opacity="0.740"/>
    <circle cx="222.11" cy="95.43" r="1.23" fill="#000000" opacity="0.735"/>
    <circle cx="222.53" cy="95.49" r="1.43" fill="#000000" opacity="0.730"/>
    <circle cx="222.37" cy="94.06" r="1.56" fill="#000000" opacity="0.725"/>
    <circle cx="225.35" cy="92.28" r="1.33" fill="#000000" opacity="0.720"/>
    <circle cx="225.05" cy="92.82" r="1.17" fill="#000000" opacity="0.715"/>
    <circle cx="224.94" cy="93.98" r="1.47" fill="#000000" opacity="0.710"/>
    <circle cx="226.61" cy="92.73" r="1.61" fill="#000000" opacity="0.705"/>
    <circle cx="225.63" cy="87.89" r="1.28" fill="#000000" opacity="0.700"/>
    <circle cx="227.74" cy="90.66" r="1.76" fill="#000000" opacity="0.695"/>
    <circle cx="226.68" cy="89.15" r="1.44" fill="#000000" opacity="0.690"/>
    <circle cx="227.94" cy="85.76" r="1.18" fill="#000000" opacity="0.685"/>
    <circle cx="227.63" cy="83.87" r="1.27" fill="#000000" opacity="0.680"/>
    <circle cx="229.15" cy="84.52" r="1.13" fill="#000000" opacity="0.675"/>
    <circle cx="228.64" cy="82.25" r="1.50" fill="#000000" opacity="0.670"/>
    <circle cx="227.10" cy="82.41" r="1.45" fill="#000000" opacity="0.665"/>
    <circle cx="227.54" cy="82.49" r="1.11" fill="#000000" opacity="0.660"/>
    <circle cx="229.92" cy="78.81" r="1.30" fill="#000000" opacity="0.655"/>
    <circle cx="229.24" cy="79.01" r="1.61" fill="#000000" opacity="0.650"/>
    <circle cx="230.43" cy="79.89" r="1.67" fill="#000000" opacity="0.645"/>
    <circle cx="230.29" cy="75.85" r="1.02" fill="#000000" opacity="0.640"/>
    <circle cx="232.02" cy="78.93" r="1.28" fill="#000000" opacity="0.635"/>
    <circle cx="232.95" cy="76.92" r="1.52" fill="#000000" opacity="0.630"/>
    <circle cx="233.85" cy="76.65" r="1.16" fill="#000000" opacity="0.625"/>
    <circle cx="231.00" cy="72.04" r="1.10" fill="#000000" opacity="0.620"/>
    <circle cx="234.34" cy="72.85" r="1.17" fill="#000000" opacity="0.615"/>
    <circle cx="234.91" cy="72.73" r="1.13" fill="#000000" opacity="0.610"/>
    <circle cx="234.94" cy="71.62" r="1.09" fill="#000000" opacity="0.605"/>
    <circle cx="236.32" cy="71.55" r="1.09" fill="#000000" opacity="0.600"/>
    <circle cx="233.20" cy="67.60" r="1.54" fill="#000000" opacity="0.595"/>
    <circle cx="237.82" cy="66.95" r="1.57" fill="#000000" opacity="0.590"/>
    <circle cx="234.30" cy="67.23" r="1.50" fill="#000000" opacity="0.585"/>
    <circle cx="234.85" cy="66.57" r="1.68" fill="#000000" opacity="0.580"/>
    <circle cx="237.52" cy="62.62" r="1.79" fill="#000000" opacity="0.575"/>
    <circle cx="238.77" cy="62.60" r="1.34" fill="#000000" opacity="0.570"/>
    <circle cx="237.37" cy="62.28" r="1.27" fill="#000000" opacity="0.565"/>
    <circle cx="239.95" cy="62.66" r="1.08" fill="#000000" opacity="0.560"/>
    <circle cx="240.88" cy="60.80" r="1.66" fill="#000000" opacity="0.555"/>
    <circle cx="240.18" cy="58.87" r="1.59" fill="#000000" opacity="0.550"/>
    <circle cx="241.77" cy="57.10" r="1.65" fill="#000000" opacity="0.545"/>
    <circle cx="240.30" cy="57.02" r="1.35" fill="#000000" opacity="0.540"/>
    <circle cx="241.60" cy="55.02" r="1.68" fill="#000000" opacity="0.535"/>
    <circle cx="242.48" cy="53.18" r="1.71" fill="#000000" opacity="0.530"/>
    <circle cx="240.29" cy="53.84" r="1.49" fill="#000000" opacity="0.525"/>
    <circle cx="241.33" cy="50.86" r="1.68" fill="#000000" opacity="0.520"/>
    <circle cx="240.88" cy="50.65" r="1.64" fill="#000000" opacity="0.515"/>
    <circle cx="242.03" cy="52.61" r="1.56" fill="#000000" opacity="0.510"/>
    <circle cx="242.18" cy="47.68" r="1.76" fill="#000000" opacity="0.505"/>
  </g>
  <text x="200.0" y="312.0" 
    font-family="Inter, -apple-system, BlinkMacSystemFont, 'Segoe UI', system-ui, sans-serif" 
    font-size="56.0" font-weight="600" 
    fill="#000000" text-anchor="middle" dominant-baseline="middle"
    letter-spacing="12.3">Vex</text>
</svg>