<?xml version="1.0" encoding="UTF-8"?>
<svg width="200" height="200" viewBox="0 0 200 200" fill="none" xmlns="http://www.w3.org/2000/svg">
  <g>
    <circle cx="93.36" cy="43.04" r="0.60" fill="#000000" opacity="0.081"/>
    <circle cx="52.95" cy="133.38" r="0.43" fill="#000000" opacity="0.097"/>
    <circle cx="180.24" cy="92.85" r="0.57" fill="#000000" opacity="0.098"/>
    <circle cx="96.59" cy="24.69" r="0.48" fill="#000000" opacity="0.046"/>
    <circle cx="74.22" cy="48.88" r="0.46" fill="#000000" opacity="0.108"/>
    <circle cx="90.79" cy="44.14" r="0.45" fill="#000000" opacity="0.073"/>
    <circle cx="60.34" cy="119.91" r="0.36" fill="#000000" opacity="0.074"/>
    <circle cx="163.04" cy="67.21" r="0.75" fill="#000000" opacity="0.089"/>
    <circle cx="80.74" cy="150.11" r="0.30" fill="#000000" opacity="0.063"/>
    <circle cx="43.17" cy="118.79" r="0.63" fill="#000000" opacity="0.077"/>
    <circle cx="58.53" cy="107.77" r="0.54" fill="#000000" opacity="0.112"/>
    <circle cx="112.02" cy="51.60" r="0.34" fill="#000000" opacity="0.081"/>
    <circle cx="66.12" cy="54.56" r="0.71" fill="#000000" opacity="0.100"/>
    <circle cx="79.05" cy="52.26" r="0.40" fill="#000000" opacity="0.042"/>
    <circle cx="101.86" cy="149.52" r="0.72" fill="#000000" opacity="0.046"/>
    <circle cx="43.88" cy="125.46" r="0.40" fill="#000000" opacity="0.096"/>
    <circle cx="54.13" cy="93.62" r="0.63" fill="#000000" opacity="0.040"/>
    <circle cx="100.44" cy="19.59" r="0.35" fill="#000000" opacity="0.074"/>
    <circle cx="136.77" cy="165.16" r="0.56" fill="#000000" opacity="0.044"/>
    <circle cx="100.38" cy="168.36" r="0.53" fill="#000000" opacity="0.104"/>
    <circle cx="58.72" cy="19.54" r="0.60" fill="#000000" opacity="0.116"/>
    <circle cx="150.05" cy="51.35" r="0.66" fill="#000000" opacity="0.080"/>
    <circle cx="129.68" cy="38.46" r="0.75" fill="#000000" opacity="0.099"/>
    <circle cx="53.93" cy="99.39" r="0.42" fill="#000000" opacity="0.091"/>
    <circle cx="105.94" cy="32.42" r="0.61" fill="#000000" opacity="0.062"/>
    <circle cx="142.42" cy="114.46" r="0.44" fill="#000000" opacity="0.066"/>
    <circle cx="60.71" cy="81.87" r="0.42" fill="#000000" opacity="0.096"/>
    <circle cx="90.04" cy="56.54" r="0.50" fill="#000000" opacity="0.083"/>
    <circle cx="62.00" cy="114.23" r="0.51" fill="#000000" opacity="0.112"/>
    <circle cx="40.71" cy="57.39" r="0.73" fill="#000000" opacity="0.101"/>
    <circle cx="75.23" cy="115.14" r="0.48" fill="#000000" opacity="0.100"/>
    <circle cx="149.41" cy="27.00" r="0.51" fill="#000000" opacity="0.100"/>
    <circle cx="38.67" cy="73.71" r="0.41" fill="#000000" opacity="0.058"/>
    <circle cx="67.75" cy="105.76" r="0.47" fill="#000000" opacity="0.094"/>
    <circle cx="65.43" cy="115.71" r="0.53" fill="#000000" opacity="0.050"/>
    <circle cx="74.86" cy="67.71" r="0.50" fill="#000000" opacity="0.085"/>
    <circle cx="165.04" cy="103.18" r="0.37" fill="#000000" opacity="0.077"/>
    <circle cx="150.10" cy="108.38" r="0.41" fill="#000000" opacity="0.066"/>
    <circle cx="103.72" cy="39.42" r="0.68" fill="#000000" opacity="0.107"/>
    <circle cx="99.46" cy="129.72" r="0.31" fill="#000000" opacity="0.083"/>
    <circle cx="151.24" cy="91.97" r="0.63" fill="#000000" opacity="0.102"/>
    <circle cx="58.55" cy="33.60" r="0.77" fill="#000000" opacity="0.056"/>
    <circle cx="140.94" cy="97.27" r="0.36" fill="#000000" opacity="0.094"/>
    <circle cx="58.97" cy="74.56" r="0.65" fill="#000000" opacity="0.101"/>
    <circle cx="131.71" cy="147.83" r="0.67" fill="#000000" opacity="0.049"/>
    <circle cx="134.68" cy="17.45" r="0.35" fill="#000000" opacity="0.042"/>
    <circle cx="74.29" cy="154.67" r="0.78" fill="#000000" opacity="0.072"/>
    <circle cx="91.84" cy="55.47" r="0.65" fill="#000000" opacity="0.090"/>
    <circle cx="78.50" cy="39.36" r="1.22" fill="#000000" opacity="0.500"/>
    <circle cx="77.94" cy="41.81" r="1.54" fill="#000000" opacity="0.508"/>
    <circle cx="79.80" cy="41.21" r="1.34" fill="#000000" opacity="0.517"/>
    <circle cx="78.23" cy="42.37" r="1.40" fill="#000000" opacity="0.525"/>
    <circle cx="78.59" cy="43.18" r="1.52" fill="#000000" opacity="0.533"/>
    <circle cx="80.11" cy="44.09" r="1.47" fill="#000000" opacity="0.542"/>
    <circle cx="81.07" cy="44.47" r="1.64" fill="#000000" opacity="0.550"/>
    <circle cx="81.18" cy="46.08" r="1.12" fill="#000000" opacity="0.558"/>
    <circle cx="82.12" cy="46.93" r="1.07" fill="#000000" opacity="0.567"/>
    <circle cx="80.56" cy="48.94" r="1.48" fill="#000000" opacity="0.575"/>
    <circle cx="82.52" cy="49.53" r="1.43" fill="#000000" opacity="0.583"/>
    <circle cx="83.25" cy="49.60" r="1.44" fill="#000000" opacity="0.592"/>
    <circle cx="83.29" cy="51.00" r="1.69" fill="#000000" opacity="0.600"/>
    <circle cx="83.09" cy="52.05" r="1.04" fill="#000000" opacity="0.608"/>
    <circle cx="82.67" cy="51.98" r="1.06" fill="#000000" opacity="0.617"/>
    <circle cx="83.05" cy="52.42" r="1.22" fill="#000000" opacity="0.625"/>
    <circle cx="84.31" cy="53.87" r="1.30" fill="#000000" opacity="0.633"/>
    <circle cx="83.72" cy="54.51" r="1.75" fill="#000000" opacity="0.642"/>
    <circle cx="85.07" cy="56.14" r="1.14" fill="#000000" opacity="0.650"/>
    <circle cx="85.61" cy="56.00" r="1.30" fill="#000000" opacity="0.658"/>
    <circle cx="86.56" cy="57.93" r="1.45" fill="#000000" opacity="0.667"/>
    <circle cx="86.24" cy="59.24" r="1.62" fill="#000000" opacity="0.675"/>
    <circle cx="85.58" cy="58.28" r="1.25" fill="#000000" opacity="0.683"/>
    <circle cx="86.03" cy="59.55" r="1.75" fill="#000000" opacity="0.692"/>
    <circle cx="87.76" cy="60.64" r="1.52" fill="#000000" opacity="0.700"/>
    <circle cx="87.05" cy="62.84" r="1.37" fill="#000000" opacity="0.708"/>
    <circle cx="87.12" cy="62.20" r="1.45" fill="#000000" opacity="0.717"/>
    <circle cx="87.47" cy="63.82" r="1.72" fill="#000000" opacity="0.725"/>
    <circle cx="88.14" cy="63.86" r="1.80" fill="#000000" opacity="0.733"/>
    <circle cx="88.75" cy="64.43" r="1.04" fill="#000000" opacity="0.742"/>
    <circle cx="88.22" cy="66.50" r="1.63" fill="#000000" opacity="0.750"/>
    <circle cx="89.29" cy="66.09" r="1.31" fill="#000000" opacity="0.758"/>
    <circle cx="90.93" cy="67.99" r="1.78" fill="#000000" opacity="0.767"/>
    <circle cx="90.99" cy="67.69" r="1.58" fill="#000000" opacity="0.775"/>
    <circle cx="90.96" cy="69.73" r="1.21" fill="#000000" opacity="0.783"/>
    <circle cx="91.23" cy="69.64" r="1.35" fill="#000000" opacity="0.792"/>
    <circle cx="91.17" cy="72.38" r="1.70" fill="#000000" opacity="0.800"/>
    <circle cx="91.11" cy="72.23" r="1.14" fill="#000000" opacity="0.808"/>
    <circle cx="92.93" cy="73.92" r="1.24" fill="#000000" opacity="0.817"/>
    <circle cx="92.68" cy="74.19" r="1.12" fill="#000000" opacity="0.825"/>
    <circle cx="93.32" cy="74.90" r="1.62" fill="#000000" opacity="0.833"/>
    <circle cx="93.16" cy="74.55" r="1.26" fill="#000000" opacity="0.842"/>
    <circle cx="92.38" cy="77.49" r="1.70" fill="#000000" opacity="0.850"/>
    <circle cx="94.56" cy="76.95" r="1.05" fill="#000000" opacity="0.858"/>
    <circle cx="95.03" cy="79.25" r="1.07" fill="#000000" opacity="0.867"/>
    <circle cx="94.52" cy="78.14" r="1.61" fill="#000000" opacity="0.875"/>
    <circle cx="95.51" cy="79.13" r="1.38" fill="#000000" opacity="0.883"/>
    <circle cx="95.39" cy="80.30" r="1.70" fill="#000000" opacity="0.892"/>
    <circle cx="95.47" cy="81.04" r="1.43" fill="#000000" opacity="0.900"/>
    <circle cx="96.52" cy="81.87" r="1.25" fill="#000000" opacity="0.908"/>
    <circle cx="97.47" cy="83.74" r="1.35" fill="#000000" opacity="0.917"/>
    <circle cx="96.77" cy="83.41" r="1.18" fill="#000000" opacity="0.925"/>
    <circle cx="96.73" cy="85.32" r="1.18" fill="#000000" opacity="0.933"/>
    <circle cx="96.83" cy="85.02" r="1.50" fill="#000000" opacity="0.942"/>
    <circle cx="97.21" cy="87.75" r="1.69" fill="#000000" opacity="0.950"/>
    <circle cx="97.22" cy="87.11" r="1.54" fill="#000000" opacity="0.958"/>
    <circle cx="97.91" cy="87.74" r="1.75" fill="#000000" opacity="0.967"/>
    <circle cx="99.07" cy="89.36" r="1.63" fill="#000000" opacity="0.975"/>
    <circle cx="99.96" cy="89.59" r="1.08" fill="#000000" opacity="0.983"/>
    <circle cx="99.48" cy="90.97" r="1.37" fill="#000000" opacity="0.992"/>
    <circle cx="100.51" cy="92.39" r="1.79" fill="#000000" opacity="1.000"/>
    <circle cx="99.46" cy="90.92" r="1.27" fill="#000000" opacity="0.992"/>
    <circle cx="101.54" cy="89.72" r="1.15" fill="#000000" opacity="0.983"/>
    <circle cx="100.98" cy="89.25" r="1.22" fill="#000000" opacity="0.975"/>
    <circle cx="100.89" cy="89.51" r="1.35" fill="#000000" opacity="0.967"/>
    <circle cx="102.63" cy="87.81" r="1.04" fill="#000000" opacity="0.958"/>
    <circle cx="103.30" cy="87.59" r="1.78" fill="#000000" opacity="0.950"/>
    <circle cx="103.50" cy="86.76" r="1.13" fill="#000000" opacity="0.942"/>
    <circle cx="102.88" cy="84.48" r="1.32" fill="#000000" opacity="0.933"/>
    <circle cx="102.28" cy="83.99" r="1.79" fill="#000000" opacity="0.925"/>
    <circle cx="103.11" cy="84.04" r="1.36" fill="#000000" opacity="0.917"/>
    <circle cx="103.83" cy="83.57" r="1.80" fill="#000000" opacity="0.908"/>
    <circle cx="104.49" cy="82.17" r="1.12" fill="#000000" opacity="0.900"/>
    <circle cx="104.27" cy="81.87" r="1.46" fill="#000000" opacity="0.892"/>
    <circle cx="105.18" cy="80.52" r="1.05" fill="#000000" opacity="0.883"/>
    <circle cx="105.64" cy="79.11" r="1.68" fill="#000000" opacity="0.875"/>
    <circle cx="105.05" cy="79.28" r="1.06" fill="#000000" opacity="0.867"/>
    <circle cx="105.48" cy="77.60" r="1.54" fill="#000000" opacity="0.858"/>
    <circle cx="105.95" cy="75.67" r="1.71" fill="#000000" opacity="0.850"/>
    <circle cx="106.34" cy="75.88" r="1.50" fill="#000000" opacity="0.842"/>
    <circle cx="107.09" cy="74.99" r="1.42" fill="#000000" opacity="0.833"/>
    <circle cx="108.61" cy="73.28" r="1.57" fill="#000000" opacity="0.825"/>
    <circle cx="107.41" cy="72.85" r="1.54" fill="#000000" opacity="0.817"/>
    <circle cx="107.91" cy="71.82" r="1.60" fill="#000000" opacity="0.808"/>
    <circle cx="107.77" cy="71.27" r="1.80" fill="#000000" opacity="0.800"/>
    <circle cx="110.20" cy="69.55" r="1.17" fill="#000000" opacity="0.792"/>
    <circle cx="108.92" cy="70.62" r="1.70" fill="#000000" opacity="0.783"/>
    <circle cx="110.66" cy="68.50" r="1.13" fill="#000000" opacity="0.775"/>
    <circle cx="110.92" cy="68.39" r="1.49" fill="#000000" opacity="0.767"/>
    <circle cx="111.63" cy="67.41" r="1.01" fill="#000000" opacity="0.758"/>
    <circle cx="111.61" cy="65.76" r="1.53" fill="#000000" opacity="0.750"/>
    <circle cx="112.25" cy="64.53" r="1.09" fill="#000000" opacity="0.742"/>
    <circle cx="110.75" cy="64.61" r="1.22" fill="#000000" opacity="0.733"/>
    <circle cx="112.23" cy="64.12" r="1.16" fill="#000000" opacity="0.725"/>
    <circle cx="112.66" cy="62.24" r="1.39" fill="#000000" opacity="0.717"/>
    <circle cx="113.63" cy="62.69" r="1.07" fill="#000000" opacity="0.708"/>
    <circle cx="112.91" cy="60.55" r="1.00" fill="#000000" opacity="0.700"/>
    <circle cx="114.06" cy="60.50" r="1.21" fill="#000000" opacity="0.692"/>
    <circle cx="114.35" cy="59.45" r="1.34" fill="#000000" opacity="0.683"/>
    <circle cx="113.08" cy="57.52" r="1.71" fill="#000000" opacity="0.675"/>
    <circle cx="115.44" cy="57.72" r="1.67" fill="#000000" opacity="0.667"/>
    <circle cx="115.09" cy="55.97" r="1.10" fill="#000000" opacity="0.658"/>
    <circle cx="114.84" cy="56.79" r="1.64" fill="#000000" opacity="0.650"/>
    <circle cx="116.44" cy="55.93" r="1.17" fill="#000000" opacity="0.642"/>
    <circle cx="115.43" cy="53.29" r="1.62" fill="#000000" opacity="0.633"/>
    <circle cx="117.22" cy="53.11" r="1.50" fill="#000000" opacity="0.625"/>
    <circle cx="115.95" cy="53.42" r="1.69" fill="#000000" opacity="0.617"/>
    <circle cx="118.15" cy="52.29" r="1.71" fill="#000000" opacity="0.608"/>
    <circle cx="116.38" cy="51.27" r="1.27" fill="#000000" opacity="0.600"/>
    <circle cx="118.77" cy="50.55" r="1.69" fill="#000000" opacity="0.592"/>
    <circle cx="118.87" cy="48.49" r="1.63" fill="#000000" opacity="0.583"/>
    <circle cx="117.66" cy="48.99" r="1.69" fill="#000000" opacity="0.575"/>
    <circle cx="118.28" cy="48.01" r="1.37" fill="#000000" opacity="0.567"/>
    <circle cx="118.83" cy="47.10" r="1.18" fill="#000000" opacity="0.558"/>
    <circle cx="118.56" cy="44.89" r="1.26" fill="#000000" opacity="0.550"/>
    <circle cx="120.81" cy="45.76" r="1.22" fill="#000000" opacity="0.542"/>
    <circle cx="120.67" cy="43.63" r="1.78" fill="#000000" opacity="0.533"/>
    <circle cx="120.80" cy="43.98" r="1.09" fill="#000000" opacity="0.525"/>
    <circle cx="122.13" cy="41.42" r="1.77" fill="#000000" opacity="0.517"/>
    <circle cx="120.92" cy="40.40" r="1.35" fill="#000000" opacity="0.508"/>
  </g>
</svg>